Thin.ufo
<glyph name="slash" format="1">
  <advance width="487"/>
  <unicode hex="002F"/>
  <outline>
    <contour>
      <point x="440" y="700" type="line"/>
      <point x="472" y="700" type="line"/>
      <point x="48" y="-150" type="line"/>
      <point x="15" y="-150" type="line"/>
    </contour>
  </outline>
</glyph>
<glyph name="four" format="1">
  <advance width="562"/>
  <unicode hex="0034"/>
  <outline>
    <contour>
      <point x="24" y="140" type="line"/>
      <point x="52" y="170" type="line"/>
      <point x="400" y="170" type="line" smooth="yes"/>
      <point x="406" y="170" type="line" smooth="yes"/>
      <point x="528" y="170" type="line"/>
      <point x="528" y="140" type="line"/>
    </contour>
    <contour>
      <point x="59" y="140" type="line"/>
      <point x="24" y="140" type="line"/>
      <point x="408" y="700" type="line"/>
      <point x="419" y="700" type="line"/>
      <point x="419" y="0" type="line"/>
      <point x="386" y="0" type="line"/>
      <point x="386" y="152" type="line" smooth="yes"/>
      <point x="386" y="159" type="line" smooth="yes"/>
      <point x="386" y="620" type="line"/>
    </contour>
  </outline>
</glyph>
<glyph name="F" format="1">
  <advance width="465"/>
  <unicode hex="0046"/>
  <outline>
    <contour>
      <point x="103" y="668" type="line"/>
      <point x="103" y="700" type="line"/>
      <point x="405" y="700" type="line"/>
      <point x="405" y="668" type="line"/>
    </contour>
    <contour>
      <point x="103" y="363" type="line"/>
      <point x="103" y="394" type="line"/>
      <point x="395" y="394" type="line"/>
      <point x="395" y="363" type="line"/>
    </contour>
    <contour>
      <point x="87" y="700" type="line"/>
      <point x="120" y="700" type="line"/>
      <point x="120" y="0" type="line"/>
      <point x="87" y="0" type="line"/>
    </contour>
  </outline>
</glyph>
<glyph name="I" format="1">
  <advance width="199"/>
  <unicode hex="0049"/>
  <outline>
    <contour>
      <point x="84" y="700" type="line"/>
      <point x="116" y="700" type="line"/>
      <point x="116" y="0" type="line"/>
      <point x="84" y="0" type="line"/>
    </contour>
  </outline>
</glyph>
<glyph name="N" format="1">
  <advance width="698"/>
  <unicode hex="004E"/>
  <outline>
    <contour>
      <point x="68" y="656" type="line"/>
      <point x="59" y="721" type="line"/>
      <point x="616" y="40" type="line"/>
      <point x="625" y="-21" type="line"/>
    </contour>
    <contour>
      <point x="592" y="700" type="line"/>
      <point x="625" y="700" type="line"/>
      <point x="625" y="-21" type="line"/>
      <point x="592" y="34" type="line"/>
    </contour>
    <contour>
      <point x="59" y="721" type="line"/>
      <point x="92" y="662" type="line"/>
      <point x="92" y="0" type="line"/>
      <point x="59" y="0" type="line"/>
    </contour>
  </outline>
</glyph>
<glyph name="V" format="1">
  <advance width="618"/>
  <unicode hex="0056"/>
  <outline>
    <contour>
      <point x="309" y="58" type="line"/>
      <point x="568" y="700" type="line"/>
      <point x="606" y="700" type="line"/>
      <point x="309" y="-21" type="line"/>
      <point x="12" y="700" type="line"/>
      <point x="50" y="700" type="line"/>
    </contour>
  </outline>
</glyph>
<glyph name="W" format="1">
  <advance width="962"/>
  <unicode hex="0057"/>
  <outline>
    <contour>
      <point x="278" y="34" type="line"/>
      <point x="264" y="-21" type="line"/>
      <point x="17" y="700" type="line"/>
      <point x="53" y="700" type="line"/>
    </contour>
    <contour>
      <point x="698" y="-21" type="line"/>
      <point x="684" y="34" type="line"/>
      <point x="909" y="700" type="line"/>
      <point x="945" y="700" type="line"/>
    </contour>
    <contour>
      <point x="264" y="-21" type="line"/>
      <point x="252" y="38" type="line"/>
      <point x="481" y="721" type="line"/>
      <point x="710" y="38" type="line"/>
      <point x="698" y="-21" type="line"/>
      <point x="481" y="626" type="line"/>
    </contour>
  </outline>
</glyph>
<glyph name="Y" format="1">
  <advance width="523"/>
  <unicode hex="0059"/>
  <outline>
    <contour>
      <point x="242" y="300" type="line"/>
      <point x="274" y="300" type="line"/>
      <point x="274" y="0" type="line"/>
      <point x="242" y="0" type="line"/>
    </contour>
    <contour>
      <point x="474" y="700" type="line"/>
      <point x="511" y="700" type="line"/>
      <point x="258" y="248" type="line"/>
      <point x="12" y="700" type="line"/>
      <point x="50" y="700" type="line"/>
      <point x="258" y="310" type="line"/>
    </contour>
  </outline>
</glyph>
<glyph name="asciicircum" format="1">
  <advance width="510"/>
  <unicode hex="005E"/>
  <outline>
    <contour>
      <point x="255" y="672" type="line"/>
      <point x="100" y="460" type="line"/>
      <point x="65" y="460" type="line"/>
      <point x="249" y="710" type="line"/>
      <point x="261" y="710" type="line"/>
      <point x="445" y="460" type="line"/>
      <point x="410" y="460" type="line"/>
    </contour>
  </outline>
</glyph>
<glyph name="e" format="1">
  <advance width="505"/>
  <unicode hex="0065"/>
  <outline>
    <contour>
      <point x="65" y="222" type="line"/>
      <point x="65" y="250" type="line"/>
      <point x="454" y="250" type="line"/>
      <point x="462" y="222" type="line"/>
    </contour>
    <contour>
      <point x="433" y="252" type="line" smooth="yes"/>
      <point x="433" y="361"/>
      <point x="354" y="442"/>
      <point x="257" y="442" type="curve" smooth="yes"/>
      <point x="161" y="442"/>
      <point x="74" y="366"/>
      <point x="74" y="240" type="curve"/>
      <point x="74" y="232" type="line"/>
      <point x="74" y="108"/>
      <point x="150" y="20"/>
      <point x="254" y="20" type="curve" smooth="yes"/>
      <point x="356" y="20"/>
      <point x="401" y="74"/>
      <point x="431" y="124" type="curve"/>
      <point x="456" y="107" type="line"/>
      <point x="421" y="53"/>
      <point x="374" y="-10"/>
      <point x="251" y="-10" type="curve" smooth="yes"/>
      <point x="133" y="-10"/>
      <point x="42" y="93"/>
      <point x="42" y="232" type="curve" smooth="yes"/>
      <point x="42" y="256"/>
      <point x="44" y="278"/>
      <point x="50" y="300" type="curve" smooth="yes"/>
      <point x="74" y="400"/>
      <point x="154" y="470"/>
      <point x="258" y="470" type="curve" smooth="yes"/>
      <point x="370" y="470"/>
      <point x="464" y="379"/>
      <point x="464" y="248" type="curve" smooth="yes"/>
      <point x="464" y="240"/>
      <point x="463" y="230"/>
      <point x="462" y="222" type="curve"/>
      <point x="433" y="230" type="line"/>
    </contour>
  </outline>
</glyph>
<glyph name="j" format="1">
  <advance width="201"/>
  <unicode hex="006A"/>
  <outline>
    <contour>
      <point x="72" y="682" type="curve" smooth="yes"/>
      <point x="72" y="695"/>
      <point x="82" y="705"/>
      <point x="96" y="705" type="curve" smooth="yes"/>
      <point x="110" y="705"/>
      <point x="119" y="695"/>
      <point x="119" y="682" type="curve" smooth="yes"/>
      <point x="119" y="669"/>
      <point x="110" y="658"/>
      <point x="96" y="658" type="curve" smooth="yes"/>
      <point x="82" y="658"/>
      <point x="72" y="669"/>
    </contour>
    <contour>
      <point x="-72" y="-150" type="line"/>
      <point x="-56" y="-171"/>
      <point x="-33" y="-189"/>
      <point x="-3" y="-189" type="curve" smooth="yes"/>
      <point x="62" y="-189"/>
      <point x="80" y="-131"/>
      <point x="80" y="-72" type="curve" smooth="yes"/>
      <point x="80" y="460" type="line"/>
      <point x="111" y="460" type="line"/>
      <point x="111" y="-76" type="line" smooth="yes"/>
      <point x="111" y="-157"/>
      <point x="80" y="-220"/>
      <point x="-4" y="-220" type="curve" smooth="yes"/>
      <point x="-47" y="-220"/>
      <point x="-75" y="-194"/>
      <point x="-90" y="-174" type="curve"/>
    </contour>
  </outline>
</glyph>
<glyph name="w" format="1">
  <advance width="638"/>
  <unicode hex="0077"/>
  <outline>
    <contour>
      <point x="592" y="460" type="line"/>
      <point x="626" y="460" type="line"/>
      <point x="463" y="-21" type="line"/>
      <point x="454" y="41" type="line"/>
    </contour>
    <contour>
      <point x="305" y="421" type="line"/>
      <point x="314" y="481" type="line"/>
      <point x="469" y="41" type="line"/>
      <point x="463" y="-21" type="line"/>
    </contour>
    <contour>
      <point x="314" y="481" type="line"/>
      <point x="323" y="421" type="line"/>
      <point x="175" y="-21" type="line"/>
      <point x="169" y="41" type="line"/>
    </contour>
    <contour>
      <point x="12" y="460" type="line"/>
      <point x="46" y="460" type="line"/>
      <point x="184" y="41" type="line"/>
      <point x="175" y="-21" type="line"/>
    </contour>
  </outline>
</glyph>
<glyph name="y" format="1">
  <advance width="429"/>
  <unicode hex="0079"/>
  <outline>
    <contour>
      <point x="422" y="460" type="line"/>
      <point x="122" y="-220" type="line"/>
      <point x="88" y="-220" type="line"/>
      <point x="200" y="34" type="line"/>
      <point x="7" y="460" type="line"/>
      <point x="44" y="460" type="line"/>
      <point x="227" y="44" type="line"/>
      <point x="210" y="45" type="line"/>
      <point x="388" y="460" type="line"/>
    </contour>
  </outline>
</glyph>
<glyph name="cent" format="1">
  <advance width="580"/>
  <unicode hex="00A2"/>
  <outline>
    <contour>
      <point x="305" y="8" type="line"/>
      <point x="327" y="8" type="line"/>
      <point x="330" y="-112" type="line"/>
      <point x="302" y="-112" type="line"/>
    </contour>
    <contour>
      <point x="116" y="230" type="curve" smooth="yes"/>
      <point x="116" y="110"/>
      <point x="203" y="20"/>
      <point x="319" y="20" type="curve" smooth="yes"/>
      <point x="393" y="20"/>
      <point x="455" y="57"/>
      <point x="476" y="88" type="curve"/>
      <point x="476" y="48" type="line"/>
      <point x="451" y="19"/>
      <point x="389" y="-10"/>
      <point x="319" y="-10" type="curve" smooth="yes"/>
      <point x="186" y="-10"/>
      <point x="84" y="91"/>
      <point x="84" y="230" type="curve" smooth="yes"/>
      <point x="84" y="369"/>
      <point x="186" y="470"/>
      <point x="319" y="470" type="curve" smooth="yes"/>
      <point x="389" y="470"/>
      <point x="452" y="440"/>
      <point x="476" y="412" type="curve"/>
      <point x="476" y="372" type="line"/>
      <point x="455" y="403"/>
      <point x="393" y="440"/>
      <point x="319" y="440" type="curve" smooth="yes"/>
      <point x="203" y="440"/>
      <point x="116" y="350"/>
    </contour>
    <contour>
      <point x="302" y="578" type="line"/>
      <point x="330" y="578" type="line"/>
      <point x="327" y="452" type="line"/>
      <point x="305" y="452" type="line"/>
    </contour>
  </outline>
</glyph>
<glyph name="copyright" format="1">
  <advance width="800"/>
  <unicode hex="00A9"/>
  <outline>
    <contour>
      <point x="210" y="350" type="curve" smooth="yes"/>
      <point x="210" y="236"/>
      <point x="286" y="155"/>
      <point x="391" y="155" type="curve" smooth="yes"/>
      <point x="450" y="155"/>
      <point x="493" y="174"/>
      <point x="526" y="209" type="curve"/>
      <point x="526" y="182" type="line"/>
      <point x="491" y="151"/>
      <point x="452" y="134"/>
      <point x="391" y="134" type="curve" smooth="yes"/>
      <point x="275" y="134"/>
      <point x="189" y="225"/>
      <point x="189" y="350" type="curve" smooth="yes"/>
      <point x="189" y="475"/>
      <point x="275" y="566"/>
      <point x="391" y="566" type="curve" smooth="yes"/>
      <point x="452" y="566"/>
      <point x="491" y="549"/>
      <point x="526" y="518" type="curve"/>
      <point x="526" y="492" type="line"/>
      <point x="494" y="527"/>
      <point x="448" y="545"/>
      <point x="391" y="545" type="curve" smooth="yes"/>
      <point x="286" y="545"/>
      <point x="210" y="465"/>
    </contour>
    <contour>
      <point x="64" y="350" type="curve" smooth="yes"/>
      <point x="64" y="154"/>
      <point x="213" y="12"/>
      <point x="400" y="12" type="curve" smooth="yes"/>
      <point x="587" y="12"/>
      <point x="736" y="154"/>
      <point x="736" y="350" type="curve" smooth="yes"/>
      <point x="736" y="546"/>
      <point x="587" y="688"/>
      <point x="400" y="688" type="curve" smooth="yes"/>
      <point x="213" y="688"/>
      <point x="64" y="546"/>
    </contour>
    <contour>
      <point x="40" y="350" type="curve" smooth="yes"/>
      <point x="40" y="559"/>
      <point x="196" y="710"/>
      <point x="400" y="710" type="curve" smooth="yes"/>
      <point x="604" y="710"/>
      <point x="760" y="559"/>
      <point x="760" y="350" type="curve" smooth="yes"/>
      <point x="760" y="141"/>
      <point x="604" y="-10"/>
      <point x="400" y="-10" type="curve" smooth="yes"/>
      <point x="196" y="-10"/>
      <point x="40" y="141"/>
    </contour>
  </outline>
</glyph>
<glyph name="guillemotleft" format="1">
  <advance width="492"/>
  <unicode hex="00AB"/>
  <outline>
    <contour>
      <point x="68" y="249" type="line"/>
      <point x="40" y="255" type="line"/>
      <point x="242" y="490" type="line"/>
      <point x="262" y="472" type="line"/>
    </contour>
    <contour>
      <point x="40" y="255" type="line"/>
      <point x="68" y="264" type="line"/>
      <point x="262" y="38" type="line"/>
      <point x="242" y="20" type="line"/>
    </contour>
    <contour>
      <point x="228" y="249" type="line"/>
      <point x="200" y="255" type="line"/>
      <point x="402" y="490" type="line"/>
      <point x="422" y="472" type="line"/>
    </contour>
    <contour>
      <point x="200" y="255" type="line"/>
      <point x="228" y="264" type="line"/>
      <point x="422" y="38" type="line"/>
      <point x="402" y="20" type="line"/>
    </contour>
  </outline>
</glyph>
<glyph name="degree" format="1">
  <advance width="278"/>
  <unicode hex="00B0"/>
  <outline>
    <contour>
      <point x="20" y="600" type="curve" smooth="yes"/>
      <point x="20" y="670"/>
      <point x="71" y="720"/>
      <point x="139" y="720" type="curve" smooth="yes"/>
      <point x="207" y="720"/>
      <point x="258" y="670"/>
      <point x="258" y="600" type="curve" smooth="yes"/>
      <point x="258" y="530"/>
      <point x="207" y="480"/>
      <point x="139" y="480" type="curve" smooth="yes"/>
      <point x="71" y="480"/>
      <point x="20" y="530"/>
    </contour>
    <contour>
      <point x="39" y="600" type="curve" smooth="yes"/>
      <point x="39" y="540"/>
      <point x="83" y="498"/>
      <point x="139" y="498" type="curve" smooth="yes"/>
      <point x="195" y="498"/>
      <point x="239" y="540"/>
      <point x="239" y="600" type="curve" smooth="yes"/>
      <point x="239" y="660"/>
      <point x="195" y="702"/>
      <point x="139" y="702" type="curve" smooth="yes"/>
      <point x="83" y="702"/>
      <point x="39" y="660"/>
    </contour>
  </outline>
</glyph>
<glyph name="uni00B2" format="1">
  <advance width="336"/>
  <unicode hex="00B2"/>
  <outline>
    <contour>
      <point x="28" y="282" type="line"/>
      <point x="222" y="486" type="line" smooth="yes"/>
      <point x="250" y="516"/>
      <point x="276" y="547"/>
      <point x="276" y="592" type="curve" smooth="yes"/>
      <point x="276" y="636"/>
      <point x="248" y="690"/>
      <point x="178" y="690" type="curve" smooth="yes"/>
      <point x="112" y="690"/>
      <point x="68" y="636"/>
      <point x="68" y="558" type="curve"/>
      <point x="48" y="558" type="line"/>
      <point x="48" y="647"/>
      <point x="100" y="709"/>
      <point x="178" y="709" type="curve" smooth="yes"/>
      <point x="262" y="709"/>
      <point x="295" y="642"/>
      <point x="295" y="590" type="curve" smooth="yes"/>
      <point x="295" y="543"/>
      <point x="269" y="507"/>
      <point x="238" y="475" type="curve" smooth="yes"/>
      <point x="70" y="300" type="line"/>
      <point x="308" y="300" type="line"/>
      <point x="308" y="282" type="line"/>
    </contour>
  </outline>
</glyph>
<glyph name="uni00B3" format="1">
  <advance width="309"/>
  <unicode hex="00B3"/>
  <outline>
    <contour>
      <point x="140" y="494" type="curve"/>
      <point x="140" y="508" type="line"/>
      <point x="194" y="508"/>
      <point x="254" y="542"/>
      <point x="254" y="598" type="curve" smooth="yes"/>
      <point x="254" y="645"/>
      <point x="222" y="688"/>
      <point x="162" y="688" type="curve" smooth="yes"/>
      <point x="105" y="688"/>
      <point x="66" y="650"/>
      <point x="66" y="596" type="curve"/>
      <point x="46" y="596" type="line"/>
      <point x="46" y="661"/>
      <point x="93" y="706"/>
      <point x="162" y="706" type="curve" smooth="yes"/>
      <point x="234" y="706"/>
      <point x="273" y="653"/>
      <point x="273" y="598" type="curve" smooth="yes"/>
      <point x="273" y="535"/>
      <point x="208" y="494"/>
    </contour>
    <contour>
      <point x="158" y="274" type="curve" smooth="yes"/>
      <point x="77" y="274"/>
      <point x="28" y="326"/>
      <point x="28" y="391" type="curve"/>
      <point x="48" y="391" type="line"/>
      <point x="48" y="334"/>
      <point x="89" y="292"/>
      <point x="158" y="292" type="curve" smooth="yes"/>
      <point x="223" y="292"/>
      <point x="266" y="332"/>
      <point x="266" y="388" type="curve" smooth="yes"/>
      <point x="266" y="456"/>
      <point x="194" y="490"/>
      <point x="140" y="490" type="curve"/>
      <point x="140" y="503" type="line"/>
      <point x="208" y="503"/>
      <point x="285" y="466"/>
      <point x="285" y="387" type="curve" smooth="yes"/>
      <point x="285" y="320"/>
      <point x="233" y="274"/>
    </contour>
  </outline>
</glyph>
<glyph name="cedilla" format="1">
  <advance width="350"/>
  <unicode hex="00B8"/>
  <outline>
    <contour>
      <point x="182" y="18" type="line"/>
      <point x="208" y="18" type="line"/>
      <point x="150" y="-70" type="line"/>
      <point x="118" y="-94" type="line"/>
    </contour>
    <contour>
      <point x="275" y="-126" type="curve"/>
      <point x="251" y="-126" type="line"/>
      <point x="251" y="-88"/>
      <point x="222" y="-70"/>
      <point x="192" y="-70" type="curve" smooth="yes"/>
      <point x="168" y="-70"/>
      <point x="141" y="-78"/>
      <point x="118" y="-94" type="curve"/>
      <point x="138" y="-74" type="line"/>
      <point x="164" y="-58"/>
      <point x="175" y="-52"/>
      <point x="202" y="-52" type="curve" smooth="yes"/>
      <point x="235" y="-52"/>
      <point x="275" y="-77"/>
    </contour>
    <contour>
      <point x="275" y="-126" type="line"/>
      <point x="275" y="-187"/>
      <point x="223" y="-220"/>
      <point x="168" y="-220" type="curve" smooth="yes"/>
      <point x="131" y="-220"/>
      <point x="107" y="-210"/>
      <point x="79" y="-182" type="curve"/>
      <point x="94" y="-166" type="line"/>
      <point x="120" y="-188"/>
      <point x="137" y="-197"/>
      <point x="168" y="-197" type="curve" smooth="yes"/>
      <point x="211" y="-197"/>
      <point x="251" y="-172"/>
      <point x="251" y="-126" type="curve"/>
    </contour>
  </outline>
</glyph>
<glyph name="guillemotright" format="1">
  <advance width="492"/>
  <unicode hex="00BB"/>
  <outline>
    <contour>
      <point x="424" y="261" type="line"/>
      <point x="452" y="255" type="line"/>
      <point x="250" y="20" type="line"/>
      <point x="230" y="38" type="line"/>
    </contour>
    <contour>
      <point x="452" y="255" type="line"/>
      <point x="424" y="246" type="line"/>
      <point x="230" y="472" type="line"/>
      <point x="250" y="490" type="line"/>
    </contour>
    <contour>
      <point x="264" y="261" type="line"/>
      <point x="292" y="255" type="line"/>
      <point x="90" y="20" type="line"/>
      <point x="70" y="38" type="line"/>
    </contour>
    <contour>
      <point x="292" y="255" type="line"/>
      <point x="264" y="246" type="line"/>
      <point x="70" y="472" type="line"/>
      <point x="90" y="490" type="line"/>
    </contour>
  </outline>
</glyph>
<glyph name="onehalf" format="1">
  <advance width="819"/>
  <unicode hex="00BD"/>
  <outline>
    <contour>
      <point x="655" y="700" type="line"/>
      <point x="683" y="700" type="line"/>
      <point x="126" y="0" type="line"/>
      <point x="98" y="0" type="line"/>
    </contour>
    <contour>
      <point x="24" y="650" type="line"/>
      <point x="24" y="670" type="line"/>
      <point x="142" y="698" type="line"/>
      <point x="142" y="274" type="line"/>
      <point x="123" y="274" type="line"/>
      <point x="123" y="674" type="line"/>
    </contour>
    <contour>
      <point x="495" y="2" type="line"/>
      <point x="689" y="206" type="line" smooth="yes"/>
      <point x="717" y="236"/>
      <point x="742" y="266"/>
      <point x="742" y="311" type="curve" smooth="yes"/>
      <point x="742" y="355"/>
      <point x="714" y="410"/>
      <point x="644" y="410" type="curve" smooth="yes"/>
      <point x="578" y="410"/>
      <point x="534" y="356"/>
      <point x="534" y="278" type="curve"/>
      <point x="515" y="278" type="line"/>
      <point x="515" y="367"/>
      <point x="566" y="429"/>
      <point x="644" y="429" type="curve" smooth="yes"/>
      <point x="728" y="429"/>
      <point x="762" y="362"/>
      <point x="762" y="310" type="curve" smooth="yes"/>
      <point x="762" y="263"/>
      <point x="735" y="227"/>
      <point x="704" y="195" type="curve" smooth="yes"/>
      <point x="537" y="20" type="line"/>
      <point x="774" y="20" type="line"/>
      <point x="774" y="2" type="line"/>
    </contour>
  </outline>
</glyph>
<glyph name="threequarters" format="1">
  <advance width="820"/>
  <unicode hex="00BE"/>
  <outline>
    <contour>
      <point x="722" y="700" type="line"/>
      <point x="750" y="700" type="line"/>
      <point x="193" y="0" type="line"/>
      <point x="165" y="0" type="line"/>
    </contour>
    <contour>
      <point x="146" y="494" type="curve"/>
      <point x="146" y="508" type="line"/>
      <point x="200" y="508"/>
      <point x="258" y="542"/>
      <point x="258" y="598" type="curve" smooth="yes"/>
      <point x="258" y="645"/>
      <point x="226" y="688"/>
      <point x="166" y="688" type="curve" smooth="yes"/>
      <point x="109" y="688"/>
      <point x="70" y="650"/>
      <point x="70" y="596" type="curve"/>
      <point x="52" y="596" type="line"/>
      <point x="52" y="661"/>
      <point x="97" y="706"/>
      <point x="166" y="706" type="curve" smooth="yes"/>
      <point x="238" y="706"/>
      <point x="278" y="653"/>
      <point x="278" y="598" type="curve" smooth="yes"/>
      <point x="278" y="535"/>
      <point x="214" y="494"/>
    </contour>
    <contour>
      <point x="164" y="274" type="curve" smooth="yes"/>
      <point x="83" y="274"/>
      <point x="34" y="326"/>
      <point x="34" y="391" type="curve"/>
      <point x="54" y="391" type="line"/>
      <point x="54" y="334"/>
      <point x="95" y="292"/>
      <point x="164" y="292" type="curve" smooth="yes"/>
      <point x="229" y="292"/>
      <point x="270" y="332"/>
      <point x="270" y="388" type="curve" smooth="yes"/>
      <point x="270" y="456"/>
      <point x="200" y="490"/>
      <point x="146" y="490" type="curve"/>
      <point x="146" y="503" type="line"/>
      <point x="214" y="503"/>
      <point x="290" y="466"/>
      <point x="290" y="387" type="curve" smooth="yes"/>
      <point x="290" y="320"/>
      <point x="239" y="274"/>
    </contour>
    <contour>
      <point x="467" y="84" type="line"/>
      <point x="484" y="102" type="line"/>
      <point x="692" y="102" type="line" smooth="yes"/>
      <point x="697" y="102" type="line" smooth="yes"/>
      <point x="770" y="102" type="line"/>
      <point x="770" y="84" type="line"/>
    </contour>
    <contour>
      <point x="488" y="84" type="line"/>
      <point x="467" y="84" type="line"/>
      <point x="698" y="420" type="line"/>
      <point x="704" y="420" type="line"/>
      <point x="704" y="0" type="line"/>
      <point x="685" y="0" type="line"/>
      <point x="685" y="92" type="line" smooth="yes"/>
      <point x="685" y="95" type="line" smooth="yes"/>
      <point x="685" y="372" type="line"/>
    </contour>
  </outline>
</glyph>
<glyph name="questiondown" format="1">
  <advance width="546"/>
  <unicode hex="00BF"/>
  <outline>
    <contour>
      <point x="338" y="688" type="curve" smooth="yes"/>
      <point x="338" y="674"/>
      <point x="327" y="663"/>
      <point x="314" y="663" type="curve" smooth="yes"/>
      <point x="301" y="663"/>
      <point x="290" y="674"/>
      <point x="290" y="688" type="curve" smooth="yes"/>
      <point x="290" y="702"/>
      <point x="301" y="712"/>
      <point x="314" y="712" type="curve" smooth="yes"/>
      <point x="327" y="712"/>
      <point x="338" y="702"/>
    </contour>
    <contour>
      <point x="332" y="355" type="line"/>
      <point x="296" y="355" type="line"/>
      <point x="298" y="530" type="line"/>
      <point x="322" y="530" type="line"/>
    </contour>
    <contour>
      <point x="106" y="186" type="curve" smooth="yes"/>
      <point x="106" y="90"/>
      <point x="170" y="20"/>
      <point x="281" y="20" type="curve" smooth="yes"/>
      <point x="365" y="20"/>
      <point x="417" y="60"/>
      <point x="457" y="124" type="curve"/>
      <point x="483" y="107" type="line"/>
      <point x="437" y="37"/>
      <point x="383" y="-10"/>
      <point x="278" y="-10" type="curve" smooth="yes"/>
      <point x="153" y="-10"/>
      <point x="74" y="74"/>
      <point x="74" y="186" type="curve" smooth="yes"/>
      <point x="74" y="291"/>
      <point x="178" y="377"/>
      <point x="304" y="377" type="curve"/>
      <point x="324" y="355" type="line"/>
      <point x="197" y="355"/>
      <point x="106" y="276"/>
    </contour>
  </outline>
</glyph>
<glyph name="Acircumflex" format="1">
  <advance width="618"/>
  <unicode hex="00C2"/>
  <outline>
    <contour>
      <point x="133" y="254" type="line"/>
      <point x="142" y="284" type="line"/>
      <point x="476" y="284" type="line"/>
      <point x="486" y="254" type="line"/>
    </contour>
    <contour>
      <point x="309" y="644" type="line"/>
      <point x="159" y="273" type="line"/>
      <point x="156" y="265" type="line"/>
      <point x="49" y="0" type="line"/>
      <point x="12" y="0" type="line"/>
      <point x="309" y="721" type="line"/>
      <point x="606" y="0" type="line"/>
      <point x="569" y="0" type="line"/>
      <point x="464" y="263" type="line"/>
      <point x="460" y="271" type="line"/>
    </contour>
    <contour>
      <point x="309" y="892" type="line"/>
      <point x="169" y="769" type="line"/>
      <point x="149" y="786" type="line"/>
      <point x="309" y="926" type="line"/>
      <point x="469" y="786" type="line"/>
      <point x="449" y="769" type="line"/>
    </contour>
  </outline>
</glyph>
<glyph name="Ccedilla" format="1">
  <advance width="685"/>
  <unicode hex="00C7"/>
  <outline>
    <contour>
      <point x="82" y="350" type="curve" smooth="yes"/>
      <point x="82" y="161"/>
      <point x="211" y="26"/>
      <point x="383" y="26" type="curve" smooth="yes"/>
      <point x="482" y="26"/>
      <point x="552" y="58"/>
      <point x="608" y="116" type="curve"/>
      <point x="608" y="70" type="line"/>
      <point x="549" y="18"/>
      <point x="485" y="-8"/>
      <point x="383" y="-8" type="curve" smooth="yes"/>
      <point x="189" y="-8"/>
      <point x="47" y="141"/>
      <point x="47" y="350" type="curve" smooth="yes"/>
      <point x="47" y="559"/>
      <point x="189" y="708"/>
      <point x="383" y="708" type="curve" smooth="yes"/>
      <point x="485" y="708"/>
      <point x="549" y="682"/>
      <point x="608" y="630" type="curve"/>
      <point x="608" y="586" type="line"/>
      <point x="554" y="644"/>
      <point x="479" y="674"/>
      <point x="383" y="674" type="curve" smooth="yes"/>
      <point x="211" y="674"/>
      <point x="82" y="541"/>
    </contour>
    <contour>
      <point x="382" y="16" type="line"/>
      <point x="408" y="16" type="line"/>
      <point x="350" y="-71" type="line"/>
      <point x="318" y="-96" type="line"/>
    </contour>
    <contour>
      <point x="475" y="-128" type="curve"/>
      <point x="450" y="-128" type="line"/>
      <point x="450" y="-90"/>
      <point x="422" y="-72"/>
      <point x="392" y="-72" type="curve" smooth="yes"/>
      <point x="368" y="-72"/>
      <point x="341" y="-80"/>
      <point x="318" y="-96" type="curve"/>
      <point x="338" y="-75" type="line"/>
      <point x="364" y="-59"/>
      <point x="375" y="-54"/>
      <point x="402" y="-54" type="curve" smooth="yes"/>
      <point x="435" y="-54"/>
      <point x="475" y="-79"/>
    </contour>
    <contour>
      <point x="475" y="-128" type="line"/>
      <point x="475" y="-189"/>
      <point x="423" y="-222"/>
      <point x="368" y="-222" type="curve" smooth="yes"/>
      <point x="331" y="-222"/>
      <point x="307" y="-212"/>
      <point x="279" y="-184" type="curve"/>
      <point x="294" y="-168" type="line"/>
      <point x="320" y="-190"/>
      <point x="337" y="-198"/>
      <point x="368" y="-198" type="curve" smooth="yes"/>
      <point x="411" y="-198"/>
      <point x="450" y="-174"/>
      <point x="450" y="-128" type="curve"/>
    </contour>
  </outline>
</glyph>
<glyph name="Ntilde" format="1">
  <advance width="698"/>
  <unicode hex="00D1"/>
  <outline>
    <contour>
      <point x="68" y="656" type="line"/>
      <point x="59" y="721" type="line"/>
      <point x="616" y="40" type="line"/>
      <point x="625" y="-21" type="line"/>
    </contour>
    <contour>
      <point x="592" y="700" type="line"/>
      <point x="625" y="700" type="line"/>
      <point x="625" y="-21" type="line"/>
      <point x="592" y="34" type="line"/>
    </contour>
    <contour>
      <point x="59" y="721" type="line"/>
      <point x="92" y="662" type="line"/>
      <point x="92" y="0" type="line"/>
      <point x="59" y="0" type="line"/>
    </contour>
    <contour>
      <point x="218" y="781" type="line"/>
      <point x="221" y="816"/>
      <point x="247" y="846"/>
      <point x="292" y="846" type="curve" smooth="yes"/>
      <point x="350" y="846"/>
      <point x="362" y="799"/>
      <point x="416" y="799" type="curve" smooth="yes"/>
      <point x="442" y="799"/>
      <point x="456" y="815"/>
      <point x="472" y="847" type="curve"/>
      <point x="492" y="832" type="line"/>
      <point x="476" y="795"/>
      <point x="450" y="773"/>
      <point x="414" y="773" type="curve" smooth="yes"/>
      <point x="359" y="773"/>
      <point x="338" y="820"/>
      <point x="293" y="820" type="curve" smooth="yes"/>
      <point x="252" y="820"/>
      <point x="240" y="791"/>
      <point x="240" y="769" type="curve"/>
    </contour>
  </outline>
</glyph>
<glyph name="Oslash" format="1">
  <advance width="790"/>
  <unicode hex="00D8"/>
  <outline>
    <contour>
      <point x="82" y="350" type="curve" smooth="yes"/>
      <point x="82" y="162"/>
      <point x="210" y="24"/>
      <point x="390" y="24" type="curve" smooth="yes"/>
      <point x="570" y="24"/>
      <point x="697" y="162"/>
      <point x="697" y="350" type="curve" smooth="yes"/>
      <point x="697" y="538"/>
      <point x="570" y="676"/>
      <point x="390" y="676" type="curve" smooth="yes"/>
      <point x="210" y="676"/>
      <point x="82" y="538"/>
    </contour>
    <contour>
      <point x="47" y="350" type="curve" smooth="yes"/>
      <point x="47" y="558"/>
      <point x="193" y="708"/>
      <point x="390" y="708" type="curve" smooth="yes"/>
      <point x="587" y="708"/>
      <point x="732" y="558"/>
      <point x="732" y="350" type="curve" smooth="yes"/>
      <point x="732" y="142"/>
      <point x="587" y="-8"/>
      <point x="390" y="-8" type="curve" smooth="yes"/>
      <point x="193" y="-8"/>
      <point x="47" y="142"/>
    </contour>
    <contour>
      <point x="705" y="738" type="line"/>
      <point x="730" y="722" type="line"/>
      <point x="81" y="-38" type="line"/>
      <point x="57" y="-22" type="line"/>
    </contour>
  </outline>
</glyph>
<glyph name="Udieresis" format="1">
  <advance width="591"/>
  <unicode hex="00DC"/>
  <outline>
    <contour>
      <point x="82" y="700" type="line"/>
      <point x="115" y="700" type="line"/>
      <point x="115" y="223" type="line" smooth="yes"/>
      <point x="115" y="99"/>
      <point x="182" y="22"/>
      <point x="296" y="22" type="curve" smooth="yes"/>
      <point x="410" y="22"/>
      <point x="476" y="99"/>
      <point x="476" y="223" type="curve" smooth="yes"/>
      <point x="476" y="700" type="line"/>
      <point x="509" y="700" type="line"/>
      <point x="509" y="223" type="line" smooth="yes"/>
      <point x="509" y="84"/>
      <point x="434" y="-10"/>
      <point x="296" y="-10" type="curve" smooth="yes"/>
      <point x="158" y="-10"/>
      <point x="82" y="84"/>
      <point x="82" y="223" type="curve" smooth="yes"/>
    </contour>
    <contour>
      <point x="364" y="793" type="curve" smooth="yes"/>
      <point x="364" y="807"/>
      <point x="375" y="817"/>
      <point x="388" y="817" type="curve" smooth="yes"/>
      <point x="401" y="817"/>
      <point x="412" y="807"/>
      <point x="412" y="793" type="curve" smooth="yes"/>
      <point x="412" y="779"/>
      <point x="401" y="768"/>
      <point x="388" y="768" type="curve" smooth="yes"/>
      <point x="375" y="768"/>
      <point x="364" y="779"/>
    </contour>
    <contour>
      <point x="178" y="793" type="curve" smooth="yes"/>
      <point x="178" y="807"/>
      <point x="189" y="817"/>
      <point x="202" y="817" type="curve" smooth="yes"/>
      <point x="215" y="817"/>
      <point x="226" y="807"/>
      <point x="226" y="793" type="curve" smooth="yes"/>
      <point x="226" y="779"/>
      <point x="215" y="768"/>
      <point x="202" y="768" type="curve" smooth="yes"/>
      <point x="189" y="768"/>
      <point x="178" y="779"/>
    </contour>
  </outline>
</glyph>
<glyph name="Yacute" format="1">
  <advance width="523"/>
  <unicode hex="00DD"/>
  <outline>
    <contour>
      <point x="242" y="300" type="line"/>
      <point x="274" y="300" type="line"/>
      <point x="274" y="0" type="line"/>
      <point x="242" y="0" type="line"/>
    </contour>
    <contour>
      <point x="474" y="700" type="line"/>
      <point x="511" y="700" type="line"/>
      <point x="258" y="248" type="line"/>
      <point x="12" y="700" type="line"/>
      <point x="50" y="700" type="line"/>
      <point x="258" y="310" type="line"/>
    </contour>
    <contour>
      <point x="410" y="924" type="line"/>
      <point x="234" y="768" type="line"/>
      <point x="218" y="781" type="line"/>
      <point x="382" y="941" type="line"/>
    </contour>
  </outline>
</glyph>
<glyph name="aacute" format="1">
  <advance width="450"/>
  <unicode hex="00E1"/>
  <outline>
    <contour>
      <point x="68" y="135" type="curve" smooth="yes"/>
      <point x="68" y="51"/>
      <point x="130" y="18"/>
      <point x="198" y="18" type="curve" smooth="yes"/>
      <point x="285" y="18"/>
      <point x="352" y="80"/>
      <point x="352" y="166" type="curve"/>
      <point x="360" y="151" type="line"/>
      <point x="360" y="62"/>
      <point x="292" y="-10"/>
      <point x="192" y="-10" type="curve" smooth="yes"/>
      <point x="111" y="-10"/>
      <point x="37" y="34"/>
      <point x="37" y="132" type="curve" smooth="yes"/>
      <point x="37" y="232"/>
      <point x="125" y="282"/>
      <point x="222" y="282" type="curve" smooth="yes"/>
      <point x="303" y="282"/>
      <point x="345" y="250"/>
      <point x="364" y="232" type="curve"/>
      <point x="364" y="211" type="line"/>
      <point x="334" y="236"/>
      <point x="289" y="257"/>
      <point x="224" y="257" type="curve" smooth="yes"/>
      <point x="142" y="257"/>
      <point x="68" y="216"/>
    </contour>
    <contour>
      <point x="92" y="382" type="curve"/>
      <point x="76" y="406" type="line"/>
      <point x="110" y="435"/>
      <point x="162" y="470"/>
      <point x="238" y="470" type="curve" smooth="yes"/>
      <point x="332" y="470"/>
      <point x="383" y="412"/>
      <point x="383" y="323" type="curve" smooth="yes"/>
      <point x="383" y="0" type="line"/>
      <point x="352" y="0" type="line"/>
      <point x="352" y="323" type="line" smooth="yes"/>
      <point x="352" y="397"/>
      <point x="311" y="442"/>
      <point x="238" y="442" type="curve" smooth="yes"/>
      <point x="172" y="442"/>
      <point x="124" y="412"/>
    </contour>
    <contour>
      <point x="366" y="699" type="line"/>
      <point x="192" y="544" type="line"/>
      <point x="174" y="556" type="line"/>
      <point x="338" y="716" type="line"/>
    </contour>
  </outline>
</glyph>
<glyph name="ccedilla" format="1">
  <advance width="485"/>
  <unicode hex="00E7"/>
  <outline>
    <contour>
      <point x="68" y="230" type="curve" smooth="yes"/>
      <point x="68" y="108"/>
      <point x="158" y="20"/>
      <point x="272" y="20" type="curve" smooth="yes"/>
      <point x="346" y="20"/>
      <point x="407" y="58"/>
      <point x="428" y="88" type="curve"/>
      <point x="428" y="48" type="line"/>
      <point x="403" y="19"/>
      <point x="342" y="-10"/>
      <point x="272" y="-10" type="curve" smooth="yes"/>
      <point x="139" y="-10"/>
      <point x="37" y="91"/>
      <point x="37" y="230" type="curve" smooth="yes"/>
      <point x="37" y="369"/>
      <point x="139" y="470"/>
      <point x="272" y="470" type="curve" smooth="yes"/>
      <point x="342" y="470"/>
      <point x="403" y="440"/>
      <point x="428" y="412" type="curve"/>
      <point x="428" y="372" type="line"/>
      <point x="407" y="402"/>
      <point x="346" y="440"/>
      <point x="272" y="440" type="curve" smooth="yes"/>
      <point x="158" y="440"/>
      <point x="68" y="352"/>
    </contour>
    <contour>
      <point x="270" y="15" type="line"/>
      <point x="296" y="15" type="line"/>
      <point x="238" y="-72" type="line"/>
      <point x="206" y="-97" type="line"/>
    </contour>
    <contour>
      <point x="363" y="-129" type="curve"/>
      <point x="339" y="-129" type="line"/>
      <point x="339" y="-91"/>
      <point x="310" y="-74"/>
      <point x="280" y="-74" type="curve" smooth="yes"/>
      <point x="256" y="-74"/>
      <point x="229" y="-81"/>
      <point x="206" y="-97" type="curve"/>
      <point x="226" y="-76" type="line"/>
      <point x="252" y="-60"/>
      <point x="263" y="-55"/>
      <point x="290" y="-55" type="curve" smooth="yes"/>
      <point x="323" y="-55"/>
      <point x="363" y="-80"/>
    </contour>
    <contour>
      <point x="363" y="-129" type="line"/>
      <point x="363" y="-190"/>
      <point x="311" y="-223"/>
      <point x="256" y="-223" type="curve" smooth="yes"/>
      <point x="219" y="-223"/>
      <point x="195" y="-213"/>
      <point x="167" y="-185" type="curve"/>
      <point x="182" y="-169" type="line"/>
      <point x="208" y="-191"/>
      <point x="225" y="-200"/>
      <point x="256" y="-200" type="curve" smooth="yes"/>
      <point x="299" y="-200"/>
      <point x="339" y="-175"/>
      <point x="339" y="-129" type="curve"/>
    </contour>
  </outline>
</glyph>
<glyph name="eth" format="1">
  <advance width="548"/>
  <unicode hex="00F0"/>
  <outline>
    <contour>
      <point x="466" y="223" type="curve" smooth="yes"/>
      <point x="466" y="326"/>
      <point x="391" y="418"/>
      <point x="266" y="418" type="curve" smooth="yes"/>
      <point x="166" y="418"/>
      <point x="82" y="333"/>
      <point x="82" y="223" type="curve" smooth="yes"/>
      <point x="82" y="106"/>
      <point x="160" y="20"/>
      <point x="274" y="20" type="curve" smooth="yes"/>
      <point x="392" y="20"/>
      <point x="466" y="111"/>
    </contour>
    <contour>
      <point x="218" y="700" type="line"/>
      <point x="446" y="378" type="line" smooth="yes"/>
      <point x="473" y="341"/>
      <point x="498" y="280"/>
      <point x="498" y="223" type="curve" smooth="yes"/>
      <point x="498" y="86"/>
      <point x="409" y="-10"/>
      <point x="274" y="-10" type="curve" smooth="yes"/>
      <point x="139" y="-10"/>
      <point x="50" y="86"/>
      <point x="50" y="223" type="curve" smooth="yes"/>
      <point x="50" y="345"/>
      <point x="143" y="443"/>
      <point x="257" y="443" type="curve" smooth="yes"/>
      <point x="323" y="443"/>
      <point x="376" y="420"/>
      <point x="414" y="374" type="curve"/>
      <point x="412" y="372" type="line"/>
      <point x="178" y="700" type="line"/>
    </contour>
    <contour>
      <point x="148" y="558" type="line"/>
      <point x="148" y="585" type="line"/>
      <point x="427" y="585" type="line"/>
      <point x="427" y="558" type="line"/>
    </contour>
  </outline>
</glyph>
<glyph name="otilde" format="1">
  <advance width="553"/>
  <unicode hex="00F5"/>
  <outline>
    <contour>
      <point x="42" y="230" type="curve" smooth="yes"/>
      <point x="42" y="369"/>
      <point x="143" y="470"/>
      <point x="276" y="470" type="curve" smooth="yes"/>
      <point x="409" y="470"/>
      <point x="511" y="369"/>
      <point x="511" y="230" type="curve" smooth="yes"/>
      <point x="511" y="91"/>
      <point x="409" y="-10"/>
      <point x="276" y="-10" type="curve" smooth="yes"/>
      <point x="143" y="-10"/>
      <point x="42" y="91"/>
    </contour>
    <contour>
      <point x="74" y="230" type="curve" smooth="yes"/>
      <point x="74" y="108"/>
      <point x="162" y="20"/>
      <point x="276" y="20" type="curve" smooth="yes"/>
      <point x="390" y="20"/>
      <point x="480" y="108"/>
      <point x="480" y="230" type="curve" smooth="yes"/>
      <point x="480" y="352"/>
      <point x="390" y="440"/>
      <point x="276" y="440" type="curve" smooth="yes"/>
      <point x="162" y="440"/>
      <point x="74" y="352"/>
    </contour>
    <contour>
      <point x="139" y="556" type="line"/>
      <point x="142" y="591"/>
      <point x="169" y="621"/>
      <point x="214" y="621" type="curve" smooth="yes"/>
      <point x="272" y="621"/>
      <point x="284" y="574"/>
      <point x="338" y="574" type="curve" smooth="yes"/>
      <point x="364" y="574"/>
      <point x="378" y="590"/>
      <point x="394" y="622" type="curve"/>
      <point x="414" y="607" type="line"/>
      <point x="398" y="570"/>
      <point x="372" y="548"/>
      <point x="336" y="548" type="curve" smooth="yes"/>
      <point x="281" y="548"/>
      <point x="259" y="595"/>
      <point x="214" y="595" type="curve" smooth="yes"/>
      <point x="173" y="595"/>
      <point x="162" y="566"/>
      <point x="162" y="544" type="curve"/>
    </contour>
  </outline>
</glyph>
<glyph name="odieresis" format="1">
  <advance width="553"/>
  <unicode hex="00F6"/>
  <outline>
    <contour>
      <point x="42" y="230" type="curve" smooth="yes"/>
      <point x="42" y="369"/>
      <point x="143" y="470"/>
      <point x="276" y="470" type="curve" smooth="yes"/>
      <point x="409" y="470"/>
      <point x="511" y="369"/>
      <point x="511" y="230" type="curve" smooth="yes"/>
      <point x="511" y="91"/>
      <point x="409" y="-10"/>
      <point x="276" y="-10" type="curve" smooth="yes"/>
      <point x="143" y="-10"/>
      <point x="42" y="91"/>
    </contour>
    <contour>
      <point x="74" y="230" type="curve" smooth="yes"/>
      <point x="74" y="108"/>
      <point x="162" y="20"/>
      <point x="276" y="20" type="curve" smooth="yes"/>
      <point x="390" y="20"/>
      <point x="480" y="108"/>
      <point x="480" y="230" type="curve" smooth="yes"/>
      <point x="480" y="352"/>
      <point x="390" y="440"/>
      <point x="276" y="440" type="curve" smooth="yes"/>
      <point x="162" y="440"/>
      <point x="74" y="352"/>
    </contour>
    <contour>
      <point x="352" y="577" type="curve" smooth="yes"/>
      <point x="352" y="591"/>
      <point x="363" y="602"/>
      <point x="376" y="602" type="curve" smooth="yes"/>
      <point x="389" y="602"/>
      <point x="400" y="591"/>
      <point x="400" y="577" type="curve" smooth="yes"/>
      <point x="400" y="563"/>
      <point x="389" y="553"/>
      <point x="376" y="553" type="curve" smooth="yes"/>
      <point x="363" y="553"/>
      <point x="352" y="563"/>
    </contour>
    <contour>
      <point x="152" y="577" type="curve" smooth="yes"/>
      <point x="152" y="591"/>
      <point x="163" y="602"/>
      <point x="176" y="602" type="curve" smooth="yes"/>
      <point x="189" y="602"/>
      <point x="200" y="591"/>
      <point x="200" y="577" type="curve" smooth="yes"/>
      <point x="200" y="563"/>
      <point x="189" y="553"/>
      <point x="176" y="553" type="curve" smooth="yes"/>
      <point x="163" y="553"/>
      <point x="152" y="563"/>
    </contour>
  </outline>
</glyph>
<glyph name="ucircumflex" format="1">
  <advance width="490"/>
  <unicode hex="00FB"/>
  <outline>
    <contour>
      <point x="377" y="0" type="line"/>
      <point x="377" y="460" type="line"/>
      <point x="408" y="460" type="line"/>
      <point x="408" y="0" type="line"/>
    </contour>
    <contour>
      <point x="113" y="159" type="line" smooth="yes"/>
      <point x="113" y="73"/>
      <point x="146" y="20"/>
      <point x="228" y="20" type="curve" smooth="yes"/>
      <point x="312" y="20"/>
      <point x="377" y="94"/>
      <point x="377" y="180" type="curve"/>
      <point x="392" y="180" type="line"/>
      <point x="392" y="71"/>
      <point x="317" y="-10"/>
      <point x="222" y="-10" type="curve" smooth="yes"/>
      <point x="127" y="-10"/>
      <point x="82" y="51"/>
      <point x="82" y="156" type="curve" smooth="yes"/>
      <point x="82" y="460" type="line"/>
      <point x="113" y="460" type="line"/>
    </contour>
    <contour>
      <point x="245" y="666" type="line"/>
      <point x="104" y="543" type="line"/>
      <point x="85" y="560" type="line"/>
      <point x="245" y="700" type="line"/>
      <point x="405" y="560" type="line"/>
      <point x="384" y="543" type="line"/>
    </contour>
  </outline>
</glyph>
<glyph name="ydieresis" format="1">
  <advance width="429"/>
  <unicode hex="00FF"/>
  <outline>
    <contour>
      <point x="422" y="460" type="line"/>
      <point x="122" y="-220" type="line"/>
      <point x="88" y="-220" type="line"/>
      <point x="200" y="34" type="line"/>
      <point x="7" y="460" type="line"/>
      <point x="44" y="460" type="line"/>
      <point x="227" y="44" type="line"/>
      <point x="210" y="45" type="line"/>
      <point x="388" y="460" type="line"/>
    </contour>
    <contour>
      <point x="277" y="568" type="curve" smooth="yes"/>
      <point x="277" y="582"/>
      <point x="287" y="592"/>
      <point x="300" y="592" type="curve" smooth="yes"/>
      <point x="313" y="592"/>
      <point x="325" y="582"/>
      <point x="325" y="568" type="curve" smooth="yes"/>
      <point x="325" y="554"/>
      <point x="313" y="544"/>
      <point x="300" y="544" type="curve" smooth="yes"/>
      <point x="287" y="544"/>
      <point x="277" y="554"/>
    </contour>
    <contour>
      <point x="105" y="568" type="curve" smooth="yes"/>
      <point x="105" y="582"/>
      <point x="115" y="592"/>
      <point x="128" y="592" type="curve" smooth="yes"/>
      <point x="141" y="592"/>
      <point x="153" y="582"/>
      <point x="153" y="568" type="curve" smooth="yes"/>
      <point x="153" y="554"/>
      <point x="141" y="544"/>
      <point x="128" y="544" type="curve" smooth="yes"/>
      <point x="115" y="544"/>
      <point x="105" y="554"/>
    </contour>
  </outline>
</glyph>
<glyph name="Aogonek" format="1">
  <advance width="618"/>
  <unicode hex="0104"/>
  <outline>
    <contour>
      <point x="133" y="254" type="line"/>
      <point x="142" y="284" type="line"/>
      <point x="476" y="284" type="line"/>
      <point x="486" y="254" type="line"/>
    </contour>
    <contour>
      <point x="309" y="644" type="line"/>
      <point x="159" y="273" type="line"/>
      <point x="156" y="265" type="line"/>
      <point x="49" y="0" type="line"/>
      <point x="12" y="0" type="line"/>
      <point x="309" y="721" type="line"/>
      <point x="606" y="0" type="line"/>
      <point x="569" y="0" type="line"/>
      <point x="464" y="263" type="line"/>
      <point x="460" y="271" type="line"/>
    </contour>
    <contour>
      <point x="628" y="-160" type="curve"/>
      <point x="643" y="-180" type="line"/>
      <point x="628" y="-200"/>
      <point x="591" y="-220"/>
      <point x="548" y="-220" type="curve" smooth="yes"/>
      <point x="478" y="-220"/>
      <point x="439" y="-186"/>
      <point x="439" y="-134" type="curve"/>
      <point x="470" y="-128" type="line"/>
      <point x="470" y="-171"/>
      <point x="506" y="-192"/>
      <point x="550" y="-192" type="curve" smooth="yes"/>
      <point x="586" y="-192"/>
      <point x="614" y="-176"/>
    </contour>
    <contour>
      <point x="470" y="-128" type="curve"/>
      <point x="439" y="-134" type="line"/>
      <point x="439" y="-68"/>
      <point x="516" y="-22"/>
      <point x="586" y="14" type="curve"/>
      <point x="603" y="0" type="line"/>
      <point x="540" y="-29"/>
      <point x="470" y="-77"/>
    </contour>
  </outline>
</glyph>
<glyph name="cdotaccent" format="1">
  <advance width="485"/>
  <unicode hex="010B"/>
  <outline>
    <contour>
      <point x="68" y="230" type="curve" smooth="yes"/>
      <point x="68" y="108"/>
      <point x="158" y="20"/>
      <point x="272" y="20" type="curve" smooth="yes"/>
      <point x="346" y="20"/>
      <point x="407" y="58"/>
      <point x="428" y="88" type="curve"/>
      <point x="428" y="48" type="line"/>
      <point x="403" y="19"/>
      <point x="342" y="-10"/>
      <point x="272" y="-10" type="curve" smooth="yes"/>
      <point x="139" y="-10"/>
      <point x="37" y="91"/>
      <point x="37" y="230" type="curve" smooth="yes"/>
      <point x="37" y="369"/>
      <point x="139" y="470"/>
      <point x="272" y="470" type="curve" smooth="yes"/>
      <point x="342" y="470"/>
      <point x="403" y="440"/>
      <point x="428" y="412" type="curve"/>
      <point x="428" y="372" type="line"/>
      <point x="407" y="402"/>
      <point x="346" y="440"/>
      <point x="272" y="440" type="curve" smooth="yes"/>
      <point x="158" y="440"/>
      <point x="68" y="352"/>
    </contour>
    <contour>
      <point x="248" y="561" type="curve" smooth="yes"/>
      <point x="248" y="575"/>
      <point x="259" y="586"/>
      <point x="272" y="586" type="curve" smooth="yes"/>
      <point x="285" y="586"/>
      <point x="296" y="575"/>
      <point x="296" y="561" type="curve" smooth="yes"/>
      <point x="296" y="547"/>
      <point x="285" y="537"/>
      <point x="272" y="537" type="curve" smooth="yes"/>
      <point x="259" y="537"/>
      <point x="248" y="547"/>
    </contour>
  </outline>
</glyph>
<glyph name="Ccaron" format="1">
  <advance width="685"/>
  <unicode hex="010C"/>
  <outline>
    <contour>
      <point x="82" y="350" type="curve" smooth="yes"/>
      <point x="82" y="161"/>
      <point x="211" y="26"/>
      <point x="383" y="26" type="curve" smooth="yes"/>
      <point x="482" y="26"/>
      <point x="552" y="58"/>
      <point x="608" y="116" type="curve"/>
      <point x="608" y="70" type="line"/>
      <point x="549" y="18"/>
      <point x="485" y="-8"/>
      <point x="383" y="-8" type="curve" smooth="yes"/>
      <point x="189" y="-8"/>
      <point x="47" y="141"/>
      <point x="47" y="350" type="curve" smooth="yes"/>
      <point x="47" y="559"/>
      <point x="189" y="708"/>
      <point x="383" y="708" type="curve" smooth="yes"/>
      <point x="485" y="708"/>
      <point x="549" y="682"/>
      <point x="608" y="630" type="curve"/>
      <point x="608" y="586" type="line"/>
      <point x="554" y="644"/>
      <point x="479" y="674"/>
      <point x="383" y="674" type="curve" smooth="yes"/>
      <point x="211" y="674"/>
      <point x="82" y="541"/>
    </contour>
    <contour>
      <point x="383" y="810" type="line"/>
      <point x="522" y="933" type="line"/>
      <point x="543" y="916" type="line"/>
      <point x="383" y="776" type="line"/>
      <point x="223" y="916" type="line"/>
      <point x="244" y="933" type="line"/>
    </contour>
  </outline>
</glyph>
<glyph name="Dcaron" format="1">
  <advance width="648"/>
  <unicode hex="010E"/>
  <outline>
    <contour>
      <point x="104" y="667" type="line"/>
      <point x="104" y="700" type="line"/>
      <point x="262" y="700" type="line" smooth="yes"/>
      <point x="466" y="700"/>
      <point x="602" y="559"/>
      <point x="602" y="350" type="curve"/>
      <point x="568" y="350" type="line"/>
      <point x="568" y="541"/>
      <point x="450" y="667"/>
      <point x="262" y="667" type="curve" smooth="yes"/>
    </contour>
    <contour>
      <point x="262" y="0" type="curve" smooth="yes"/>
      <point x="104" y="0" type="line"/>
      <point x="104" y="33" type="line"/>
      <point x="262" y="33" type="line" smooth="yes"/>
      <point x="450" y="33"/>
      <point x="568" y="158"/>
      <point x="568" y="350" type="curve"/>
      <point x="602" y="350" type="line"/>
      <point x="602" y="141"/>
      <point x="466" y="0"/>
    </contour>
    <contour>
      <point x="87" y="700" type="line"/>
      <point x="120" y="700" type="line"/>
      <point x="120" y="0" type="line"/>
      <point x="87" y="0" type="line"/>
    </contour>
    <contour>
      <point x="264" y="810" type="line"/>
      <point x="403" y="933" type="line"/>
      <point x="424" y="916" type="line"/>
      <point x="264" y="776" type="line"/>
      <point x="104" y="916" type="line"/>
      <point x="124" y="933" type="line"/>
    </contour>
  </outline>
</glyph>
<glyph name="dcroat" format="1">
  <advance width="549"/>
  <unicode hex="0111"/>
  <outline>
    <contour>
      <point x="295" y="636" type="line"/>
      <point x="295" y="665" type="line"/>
      <point x="595" y="665" type="line"/>
      <point x="595" y="636" type="line"/>
    </contour>
    <contour>
      <point x="442" y="780" type="line"/>
      <point x="472" y="780" type="line"/>
      <point x="472" y="0" type="line"/>
      <point x="442" y="0" type="line"/>
    </contour>
    <contour>
      <point x="42" y="230" type="curve" smooth="yes"/>
      <point x="42" y="379"/>
      <point x="138" y="470"/>
      <point x="260" y="470" type="curve" smooth="yes"/>
      <point x="375" y="470"/>
      <point x="456" y="365"/>
      <point x="456" y="230" type="curve" smooth="yes"/>
      <point x="456" y="95"/>
      <point x="375" y="-10"/>
      <point x="260" y="-10" type="curve" smooth="yes"/>
      <point x="138" y="-10"/>
      <point x="42" y="81"/>
    </contour>
    <contour>
      <point x="74" y="230" type="curve" smooth="yes"/>
      <point x="74" y="100"/>
      <point x="158" y="20"/>
      <point x="264" y="20" type="curve" smooth="yes"/>
      <point x="366" y="20"/>
      <point x="442" y="124"/>
      <point x="442" y="230" type="curve" smooth="yes"/>
      <point x="442" y="336"/>
      <point x="366" y="440"/>
      <point x="264" y="440" type="curve" smooth="yes"/>
      <point x="158" y="440"/>
      <point x="74" y="360"/>
    </contour>
  </outline>
</glyph>
<glyph name="Ebreve" format="1">
  <advance width="522"/>
  <unicode hex="0114"/>
  <outline>
    <contour>
      <point x="102" y="0" type="line"/>
      <point x="102" y="31" type="line"/>
      <point x="445" y="31" type="line"/>
      <point x="445" y="0" type="line"/>
    </contour>
    <contour>
      <point x="102" y="669" type="line"/>
      <point x="102" y="700" type="line"/>
      <point x="445" y="700" type="line"/>
      <point x="445" y="669" type="line"/>
    </contour>
    <contour>
      <point x="102" y="371" type="line"/>
      <point x="102" y="402" type="line"/>
      <point x="425" y="402" type="line"/>
      <point x="425" y="371" type="line"/>
    </contour>
    <contour>
      <point x="87" y="700" type="line"/>
      <point x="120" y="700" type="line"/>
      <point x="120" y="0" type="line"/>
      <point x="87" y="0" type="line"/>
    </contour>
    <contour>
      <point x="115" y="908" type="curve"/>
      <point x="144" y="908" type="line"/>
      <point x="144" y="854"/>
      <point x="187" y="795"/>
      <point x="273" y="795" type="curve" smooth="yes"/>
      <point x="359" y="795"/>
      <point x="402" y="854"/>
      <point x="402" y="908" type="curve"/>
      <point x="431" y="908" type="line"/>
      <point x="431" y="839"/>
      <point x="378" y="768"/>
      <point x="273" y="768" type="curve" smooth="yes"/>
      <point x="168" y="768"/>
      <point x="115" y="839"/>
    </contour>
  </outline>
</glyph>
<glyph name="ebreve" format="1">
  <advance width="519"/>
  <unicode hex="0115"/>
  <outline>
    <contour>
      <point x="65" y="222" type="line"/>
      <point x="65" y="250" type="line"/>
      <point x="468" y="250" type="line"/>
      <point x="476" y="222" type="line"/>
    </contour>
    <contour>
      <point x="444" y="252" type="line" smooth="yes"/>
      <point x="444" y="361"/>
      <point x="364" y="442"/>
      <point x="264" y="442" type="curve" smooth="yes"/>
      <point x="164" y="442"/>
      <point x="74" y="366"/>
      <point x="74" y="240" type="curve"/>
      <point x="74" y="232" type="line"/>
      <point x="74" y="108"/>
      <point x="151" y="20"/>
      <point x="261" y="20" type="curve" smooth="yes"/>
      <point x="363" y="20"/>
      <point x="415" y="74"/>
      <point x="445" y="124" type="curve"/>
      <point x="470" y="107" type="line"/>
      <point x="435" y="53"/>
      <point x="381" y="-10"/>
      <point x="258" y="-10" type="curve" smooth="yes"/>
      <point x="133" y="-10"/>
      <point x="42" y="93"/>
      <point x="42" y="232" type="curve" smooth="yes"/>
      <point x="42" y="256"/>
      <point x="44" y="278"/>
      <point x="50" y="300" type="curve" smooth="yes"/>
      <point x="74" y="400"/>
      <point x="156" y="470"/>
      <point x="264" y="470" type="curve" smooth="yes"/>
      <point x="380" y="470"/>
      <point x="478" y="379"/>
      <point x="478" y="248" type="curve" smooth="yes"/>
      <point x="478" y="240"/>
      <point x="477" y="230"/>
      <point x="476" y="222" type="curve"/>
      <point x="444" y="230" type="line"/>
    </contour>
    <contour>
      <point x="106" y="684" type="curve"/>
      <point x="134" y="684" type="line"/>
      <point x="134" y="630"/>
      <point x="178" y="570"/>
      <point x="264" y="570" type="curve" smooth="yes"/>
      <point x="350" y="570"/>
      <point x="394" y="630"/>
      <point x="394" y="684" type="curve"/>
      <point x="422" y="684" type="line"/>
      <point x="422" y="615"/>
      <point x="369" y="544"/>
      <point x="264" y="544" type="curve" smooth="yes"/>
      <point x="159" y="544"/>
      <point x="106" y="615"/>
    </contour>
  </outline>
</glyph>
<glyph name="Edotaccent" format="1">
  <advance width="522"/>
  <unicode hex="0116"/>
  <outline>
    <contour>
      <point x="102" y="0" type="line"/>
      <point x="102" y="31" type="line"/>
      <point x="445" y="31" type="line"/>
      <point x="445" y="0" type="line"/>
    </contour>
    <contour>
      <point x="102" y="669" type="line"/>
      <point x="102" y="700" type="line"/>
      <point x="445" y="700" type="line"/>
      <point x="445" y="669" type="line"/>
    </contour>
    <contour>
      <point x="102" y="371" type="line"/>
      <point x="102" y="402" type="line"/>
      <point x="425" y="402" type="line"/>
      <point x="425" y="371" type="line"/>
    </contour>
    <contour>
      <point x="87" y="700" type="line"/>
      <point x="120" y="700" type="line"/>
      <point x="120" y="0" type="line"/>
      <point x="87" y="0" type="line"/>
    </contour>
    <contour>
      <point x="242" y="793" type="curve" smooth="yes"/>
      <point x="242" y="807"/>
      <point x="253" y="817"/>
      <point x="266" y="817" type="curve" smooth="yes"/>
      <point x="279" y="817"/>
      <point x="290" y="807"/>
      <point x="290" y="793" type="curve" smooth="yes"/>
      <point x="290" y="779"/>
      <point x="279" y="768"/>
      <point x="266" y="768" type="curve" smooth="yes"/>
      <point x="253" y="768"/>
      <point x="242" y="779"/>
    </contour>
  </outline>
</glyph>
<glyph name="Eogonek" format="1">
  <advance width="522"/>
  <unicode hex="0118"/>
  <outline>
    <contour>
      <point x="102" y="0" type="line"/>
      <point x="102" y="31" type="line"/>
      <point x="445" y="31" type="line"/>
      <point x="445" y="0" type="line"/>
    </contour>
    <contour>
      <point x="102" y="669" type="line"/>
      <point x="102" y="700" type="line"/>
      <point x="445" y="700" type="line"/>
      <point x="445" y="669" type="line"/>
    </contour>
    <contour>
      <point x="102" y="371" type="line"/>
      <point x="102" y="402" type="line"/>
      <point x="425" y="402" type="line"/>
      <point x="425" y="371" type="line"/>
    </contour>
    <contour>
      <point x="87" y="700" type="line"/>
      <point x="120" y="700" type="line"/>
      <point x="120" y="0" type="line"/>
      <point x="87" y="0" type="line"/>
    </contour>
    <contour>
      <point x="468" y="-160" type="curve"/>
      <point x="483" y="-180" type="line"/>
      <point x="468" y="-200"/>
      <point x="431" y="-220"/>
      <point x="388" y="-220" type="curve" smooth="yes"/>
      <point x="318" y="-220"/>
      <point x="279" y="-186"/>
      <point x="279" y="-134" type="curve"/>
      <point x="310" y="-128" type="line"/>
      <point x="310" y="-171"/>
      <point x="346" y="-192"/>
      <point x="390" y="-192" type="curve" smooth="yes"/>
      <point x="426" y="-192"/>
      <point x="454" y="-176"/>
    </contour>
    <contour>
      <point x="310" y="-128" type="curve"/>
      <point x="279" y="-134" type="line"/>
      <point x="279" y="-68"/>
      <point x="356" y="-22"/>
      <point x="426" y="14" type="curve"/>
      <point x="443" y="-0" type="line"/>
      <point x="380" y="-29"/>
      <point x="310" y="-77"/>
    </contour>
  </outline>
</glyph>
<glyph name="eogonek" format="1">
  <advance width="519"/>
  <unicode hex="0119"/>
  <outline>
    <contour>
      <point x="65" y="222" type="line"/>
      <point x="65" y="250" type="line"/>
      <point x="468" y="250" type="line"/>
      <point x="476" y="222" type="line"/>
    </contour>
    <contour>
      <point x="444" y="252" type="line" smooth="yes"/>
      <point x="444" y="361"/>
      <point x="364" y="442"/>
      <point x="264" y="442" type="curve" smooth="yes"/>
      <point x="164" y="442"/>
      <point x="74" y="366"/>
      <point x="74" y="240" type="curve"/>
      <point x="74" y="232" type="line"/>
      <point x="74" y="108"/>
      <point x="151" y="20"/>
      <point x="261" y="20" type="curve" smooth="yes"/>
      <point x="363" y="20"/>
      <point x="415" y="74"/>
      <point x="445" y="124" type="curve"/>
      <point x="470" y="107" type="line"/>
      <point x="435" y="53"/>
      <point x="381" y="-10"/>
      <point x="258" y="-10" type="curve" smooth="yes"/>
      <point x="133" y="-10"/>
      <point x="42" y="93"/>
      <point x="42" y="232" type="curve" smooth="yes"/>
      <point x="42" y="256"/>
      <point x="44" y="278"/>
      <point x="50" y="300" type="curve" smooth="yes"/>
      <point x="74" y="400"/>
      <point x="156" y="470"/>
      <point x="264" y="470" type="curve" smooth="yes"/>
      <point x="380" y="470"/>
      <point x="478" y="379"/>
      <point x="478" y="248" type="curve" smooth="yes"/>
      <point x="478" y="240"/>
      <point x="477" y="230"/>
      <point x="476" y="222" type="curve"/>
      <point x="444" y="230" type="line"/>
    </contour>
    <contour>
      <point x="298" y="-168" type="curve"/>
      <point x="312" y="-187" type="line"/>
      <point x="297" y="-207"/>
      <point x="261" y="-227"/>
      <point x="218" y="-227" type="curve" smooth="yes"/>
      <point x="148" y="-227"/>
      <point x="109" y="-193"/>
      <point x="109" y="-141" type="curve"/>
      <point x="140" y="-135" type="line"/>
      <point x="140" y="-178"/>
      <point x="175" y="-199"/>
      <point x="219" y="-199" type="curve" smooth="yes"/>
      <point x="255" y="-199"/>
      <point x="284" y="-184"/>
    </contour>
    <contour>
      <point x="140" y="-135" type="curve"/>
      <point x="109" y="-141" type="line"/>
      <point x="109" y="-75"/>
      <point x="185" y="-30"/>
      <point x="255" y="6" type="curve"/>
      <point x="273" y="-8" type="line"/>
      <point x="210" y="-37"/>
      <point x="140" y="-84"/>
    </contour>
  </outline>
</glyph>
<glyph name="ecaron" format="1">
  <advance width="519"/>
  <unicode hex="011B"/>
  <outline>
    <contour>
      <point x="65" y="222" type="line"/>
      <point x="65" y="250" type="line"/>
      <point x="468" y="250" type="line"/>
      <point x="476" y="222" type="line"/>
    </contour>
    <contour>
      <point x="444" y="252" type="line" smooth="yes"/>
      <point x="444" y="361"/>
      <point x="364" y="442"/>
      <point x="264" y="442" type="curve" smooth="yes"/>
      <point x="164" y="442"/>
      <point x="74" y="366"/>
      <point x="74" y="240" type="curve"/>
      <point x="74" y="232" type="line"/>
      <point x="74" y="108"/>
      <point x="151" y="20"/>
      <point x="261" y="20" type="curve" smooth="yes"/>
      <point x="363" y="20"/>
      <point x="415" y="74"/>
      <point x="445" y="124" type="curve"/>
      <point x="470" y="107" type="line"/>
      <point x="435" y="53"/>
      <point x="381" y="-10"/>
      <point x="258" y="-10" type="curve" smooth="yes"/>
      <point x="133" y="-10"/>
      <point x="42" y="93"/>
      <point x="42" y="232" type="curve" smooth="yes"/>
      <point x="42" y="256"/>
      <point x="44" y="278"/>
      <point x="50" y="300" type="curve" smooth="yes"/>
      <point x="74" y="400"/>
      <point x="156" y="470"/>
      <point x="264" y="470" type="curve" smooth="yes"/>
      <point x="380" y="470"/>
      <point x="478" y="379"/>
      <point x="478" y="248" type="curve" smooth="yes"/>
      <point x="478" y="240"/>
      <point x="477" y="230"/>
      <point x="476" y="222" type="curve"/>
      <point x="444" y="230" type="line"/>
    </contour>
    <contour>
      <point x="264" y="578" type="line"/>
      <point x="404" y="702" type="line"/>
      <point x="424" y="684" type="line"/>
      <point x="264" y="544" type="line"/>
      <point x="104" y="684" type="line"/>
      <point x="125" y="702" type="line"/>
    </contour>
  </outline>
</glyph>
<glyph name="gcircumflex" format="1">
  <advance width="549"/>
  <unicode hex="011D"/>
  <outline>
    <contour>
      <point x="456" y="230" type="curve"/>
      <point x="442" y="230" type="line"/>
      <point x="442" y="350"/>
      <point x="354" y="440"/>
      <point x="270" y="440" type="curve" smooth="yes"/>
      <point x="154" y="440"/>
      <point x="74" y="357"/>
      <point x="74" y="230" type="curve"/>
      <point x="42" y="230" type="line"/>
      <point x="42" y="379"/>
      <point x="138" y="470"/>
      <point x="263" y="470" type="curve" smooth="yes"/>
      <point x="364" y="470"/>
      <point x="456" y="379"/>
    </contour>
    <contour>
      <point x="442" y="230" type="curve"/>
      <point x="456" y="230" type="line"/>
      <point x="456" y="81"/>
      <point x="364" y="-10"/>
      <point x="263" y="-10" type="curve" smooth="yes"/>
      <point x="138" y="-10"/>
      <point x="42" y="81"/>
      <point x="42" y="230" type="curve"/>
      <point x="74" y="230" type="line"/>
      <point x="74" y="103"/>
      <point x="154" y="20"/>
      <point x="270" y="20" type="curve" smooth="yes"/>
      <point x="354" y="20"/>
      <point x="442" y="110"/>
    </contour>
    <contour>
      <point x="55" y="-30" type="curve"/>
      <point x="86" y="-30" type="line"/>
      <point x="86" y="-131"/>
      <point x="156" y="-200"/>
      <point x="258" y="-200" type="curve" smooth="yes"/>
      <point x="354" y="-200"/>
      <point x="442" y="-134"/>
      <point x="442" y="10" type="curve" smooth="yes"/>
      <point x="442" y="460" type="line"/>
      <point x="472" y="460" type="line"/>
      <point x="472" y="10" type="line" smooth="yes"/>
      <point x="472" y="-149"/>
      <point x="373" y="-230"/>
      <point x="258" y="-230" type="curve" smooth="yes"/>
      <point x="137" y="-230"/>
      <point x="55" y="-149"/>
    </contour>
    <contour>
      <point x="260" y="653" type="line"/>
      <point x="120" y="530" type="line"/>
      <point x="100" y="547" type="line"/>
      <point x="260" y="687" type="line"/>
      <point x="420" y="547" type="line"/>
      <point x="400" y="530" type="line"/>
    </contour>
  </outline>
</glyph>
<glyph name="Gbreve" format="1">
  <advance width="768"/>
  <unicode hex="011E"/>
  <outline>
    <contour>
      <point x="416" y="314" type="line"/>
      <point x="416" y="344" type="line"/>
      <point x="716" y="344" type="line"/>
      <point x="692" y="314" type="line"/>
    </contour>
    <contour>
      <point x="716" y="344" type="line"/>
      <point x="716" y="157"/>
      <point x="592" y="-8"/>
      <point x="392" y="-8" type="curve" smooth="yes"/>
      <point x="195" y="-8"/>
      <point x="47" y="141"/>
      <point x="47" y="350" type="curve" smooth="yes"/>
      <point x="47" y="559"/>
      <point x="195" y="708"/>
      <point x="392" y="708" type="curve" smooth="yes"/>
      <point x="521" y="708"/>
      <point x="614" y="648"/>
      <point x="674" y="558" type="curve"/>
      <point x="648" y="537" type="line"/>
      <point x="600" y="617"/>
      <point x="510" y="676"/>
      <point x="392" y="676" type="curve" smooth="yes"/>
      <point x="214" y="676"/>
      <point x="82" y="541"/>
      <point x="82" y="350" type="curve" smooth="yes"/>
      <point x="82" y="161"/>
      <point x="213" y="24"/>
      <point x="392" y="24" type="curve" smooth="yes"/>
      <point x="574" y="24"/>
      <point x="683" y="176"/>
      <point x="683" y="342" type="curve"/>
    </contour>
    <contour>
      <point x="234" y="922" type="curve"/>
      <point x="262" y="922" type="line"/>
      <point x="262" y="868"/>
      <point x="306" y="809"/>
      <point x="392" y="809" type="curve" smooth="yes"/>
      <point x="478" y="809"/>
      <point x="521" y="868"/>
      <point x="521" y="922" type="curve"/>
      <point x="550" y="922" type="line"/>
      <point x="550" y="853"/>
      <point x="497" y="782"/>
      <point x="392" y="782" type="curve" smooth="yes"/>
      <point x="287" y="782"/>
      <point x="234" y="853"/>
    </contour>
  </outline>
</glyph>
<glyph name="gbreve" format="1">
  <advance width="549"/>
  <unicode hex="011F"/>
  <outline>
    <contour>
      <point x="456" y="230" type="curve"/>
      <point x="442" y="230" type="line"/>
      <point x="442" y="350"/>
      <point x="354" y="440"/>
      <point x="270" y="440" type="curve" smooth="yes"/>
      <point x="154" y="440"/>
      <point x="74" y="357"/>
      <point x="74" y="230" type="curve"/>
      <point x="42" y="230" type="line"/>
      <point x="42" y="379"/>
      <point x="138" y="470"/>
      <point x="263" y="470" type="curve" smooth="yes"/>
      <point x="364" y="470"/>
      <point x="456" y="379"/>
    </contour>
    <contour>
      <point x="442" y="230" type="curve"/>
      <point x="456" y="230" type="line"/>
      <point x="456" y="81"/>
      <point x="364" y="-10"/>
      <point x="263" y="-10" type="curve" smooth="yes"/>
      <point x="138" y="-10"/>
      <point x="42" y="81"/>
      <point x="42" y="230" type="curve"/>
      <point x="74" y="230" type="line"/>
      <point x="74" y="103"/>
      <point x="154" y="20"/>
      <point x="270" y="20" type="curve" smooth="yes"/>
      <point x="354" y="20"/>
      <point x="442" y="110"/>
    </contour>
    <contour>
      <point x="55" y="-30" type="curve"/>
      <point x="86" y="-30" type="line"/>
      <point x="86" y="-131"/>
      <point x="156" y="-200"/>
      <point x="258" y="-200" type="curve" smooth="yes"/>
      <point x="354" y="-200"/>
      <point x="442" y="-134"/>
      <point x="442" y="10" type="curve" smooth="yes"/>
      <point x="442" y="460" type="line"/>
      <point x="472" y="460" type="line"/>
      <point x="472" y="10" type="line" smooth="yes"/>
      <point x="472" y="-149"/>
      <point x="373" y="-230"/>
      <point x="258" y="-230" type="curve" smooth="yes"/>
      <point x="137" y="-230"/>
      <point x="55" y="-149"/>
    </contour>
    <contour>
      <point x="102" y="684" type="curve"/>
      <point x="130" y="684" type="line"/>
      <point x="130" y="630"/>
      <point x="174" y="570"/>
      <point x="260" y="570" type="curve" smooth="yes"/>
      <point x="346" y="570"/>
      <point x="389" y="630"/>
      <point x="389" y="684" type="curve"/>
      <point x="418" y="684" type="line"/>
      <point x="418" y="615"/>
      <point x="365" y="544"/>
      <point x="260" y="544" type="curve" smooth="yes"/>
      <point x="155" y="544"/>
      <point x="102" y="615"/>
    </contour>
  </outline>
</glyph>
<glyph name="Gdotaccent" format="1">
  <advance width="768"/>
  <unicode hex="0120"/>
  <outline>
    <contour>
      <point x="416" y="314" type="line"/>
      <point x="416" y="344" type="line"/>
      <point x="716" y="344" type="line"/>
      <point x="692" y="314" type="line"/>
    </contour>
    <contour>
      <point x="716" y="344" type="line"/>
      <point x="716" y="157"/>
      <point x="592" y="-8"/>
      <point x="392" y="-8" type="curve" smooth="yes"/>
      <point x="195" y="-8"/>
      <point x="47" y="141"/>
      <point x="47" y="350" type="curve" smooth="yes"/>
      <point x="47" y="559"/>
      <point x="195" y="708"/>
      <point x="392" y="708" type="curve" smooth="yes"/>
      <point x="521" y="708"/>
      <point x="614" y="648"/>
      <point x="674" y="558" type="curve"/>
      <point x="648" y="537" type="line"/>
      <point x="600" y="617"/>
      <point x="510" y="676"/>
      <point x="392" y="676" type="curve" smooth="yes"/>
      <point x="214" y="676"/>
      <point x="82" y="541"/>
      <point x="82" y="350" type="curve" smooth="yes"/>
      <point x="82" y="161"/>
      <point x="213" y="24"/>
      <point x="392" y="24" type="curve" smooth="yes"/>
      <point x="574" y="24"/>
      <point x="683" y="176"/>
      <point x="683" y="342" type="curve"/>
    </contour>
    <contour>
      <point x="368" y="793" type="curve" smooth="yes"/>
      <point x="368" y="807"/>
      <point x="379" y="817"/>
      <point x="392" y="817" type="curve" smooth="yes"/>
      <point x="405" y="817"/>
      <point x="416" y="807"/>
      <point x="416" y="793" type="curve" smooth="yes"/>
      <point x="416" y="779"/>
      <point x="405" y="768"/>
      <point x="392" y="768" type="curve" smooth="yes"/>
      <point x="379" y="768"/>
      <point x="368" y="779"/>
    </contour>
  </outline>
</glyph>
<glyph name="gdotaccent" format="1">
  <advance width="549"/>
  <unicode hex="0121"/>
  <outline>
    <contour>
      <point x="456" y="230" type="curve"/>
      <point x="442" y="230" type="line"/>
      <point x="442" y="350"/>
      <point x="354" y="440"/>
      <point x="270" y="440" type="curve" smooth="yes"/>
      <point x="154" y="440"/>
      <point x="74" y="357"/>
      <point x="74" y="230" type="curve"/>
      <point x="42" y="230" type="line"/>
      <point x="42" y="379"/>
      <point x="138" y="470"/>
      <point x="263" y="470" type="curve" smooth="yes"/>
      <point x="364" y="470"/>
      <point x="456" y="379"/>
    </contour>
    <contour>
      <point x="442" y="230" type="curve"/>
      <point x="456" y="230" type="line"/>
      <point x="456" y="81"/>
      <point x="364" y="-10"/>
      <point x="263" y="-10" type="curve" smooth="yes"/>
      <point x="138" y="-10"/>
      <point x="42" y="81"/>
      <point x="42" y="230" type="curve"/>
      <point x="74" y="230" type="line"/>
      <point x="74" y="103"/>
      <point x="154" y="20"/>
      <point x="270" y="20" type="curve" smooth="yes"/>
      <point x="354" y="20"/>
      <point x="442" y="110"/>
    </contour>
    <contour>
      <point x="55" y="-30" type="curve"/>
      <point x="86" y="-30" type="line"/>
      <point x="86" y="-131"/>
      <point x="156" y="-200"/>
      <point x="258" y="-200" type="curve" smooth="yes"/>
      <point x="354" y="-200"/>
      <point x="442" y="-134"/>
      <point x="442" y="10" type="curve" smooth="yes"/>
      <point x="442" y="460" type="line"/>
      <point x="472" y="460" type="line"/>
      <point x="472" y="10" type="line" smooth="yes"/>
      <point x="472" y="-149"/>
      <point x="373" y="-230"/>
      <point x="258" y="-230" type="curve" smooth="yes"/>
      <point x="137" y="-230"/>
      <point x="55" y="-149"/>
    </contour>
    <contour>
      <point x="236" y="574" type="curve" smooth="yes"/>
      <point x="236" y="588"/>
      <point x="247" y="598"/>
      <point x="260" y="598" type="curve" smooth="yes"/>
      <point x="273" y="598"/>
      <point x="284" y="588"/>
      <point x="284" y="574" type="curve" smooth="yes"/>
      <point x="284" y="560"/>
      <point x="273" y="550"/>
      <point x="260" y="550" type="curve" smooth="yes"/>
      <point x="247" y="550"/>
      <point x="236" y="560"/>
    </contour>
  </outline>
</glyph>
<glyph name="hcircumflex" format="1">
  <advance width="490"/>
  <unicode hex="0125"/>
  <outline>
    <contour>
      <point x="113" y="780" type="line"/>
      <point x="113" y="0" type="line"/>
      <point x="82" y="0" type="line"/>
      <point x="82" y="780" type="line"/>
    </contour>
    <contour>
      <point x="377" y="308" type="line" smooth="yes"/>
      <point x="377" y="388"/>
      <point x="344" y="440"/>
      <point x="262" y="440" type="curve" smooth="yes"/>
      <point x="178" y="440"/>
      <point x="113" y="366"/>
      <point x="113" y="280" type="curve"/>
      <point x="98" y="280" type="line"/>
      <point x="98" y="389"/>
      <point x="173" y="470"/>
      <point x="268" y="470" type="curve" smooth="yes"/>
      <point x="363" y="470"/>
      <point x="408" y="409"/>
      <point x="408" y="311" type="curve" smooth="yes"/>
      <point x="408" y="0" type="line"/>
      <point x="377" y="0" type="line"/>
    </contour>
    <contour>
      <point x="105" y="963" type="line"/>
      <point x="-36" y="840" type="line"/>
      <point x="-55" y="857" type="line"/>
      <point x="105" y="997" type="line"/>
      <point x="265" y="857" type="line"/>
      <point x="244" y="840" type="line"/>
    </contour>
  </outline>
</glyph>
<glyph name="Itilde" format="1">
  <advance width="199"/>
  <unicode hex="0128"/>
  <outline>
    <contour>
      <point x="84" y="700" type="line"/>
      <point x="116" y="700" type="line"/>
      <point x="116" y="0" type="line"/>
      <point x="84" y="0" type="line"/>
    </contour>
    <contour>
      <point x="-30" y="824" type="line"/>
      <point x="-27" y="859"/>
      <point x="-1" y="889"/>
      <point x="44" y="889" type="curve" smooth="yes"/>
      <point x="102" y="889"/>
      <point x="114" y="842"/>
      <point x="168" y="842" type="curve" smooth="yes"/>
      <point x="194" y="842"/>
      <point x="208" y="858"/>
      <point x="224" y="890" type="curve"/>
      <point x="244" y="875" type="line"/>
      <point x="228" y="838"/>
      <point x="202" y="816"/>
      <point x="166" y="816" type="curve" smooth="yes"/>
      <point x="111" y="816"/>
      <point x="91" y="863"/>
      <point x="46" y="863" type="curve" smooth="yes"/>
      <point x="5" y="863"/>
      <point x="-8" y="834"/>
      <point x="-8" y="812" type="curve"/>
    </contour>
  </outline>
</glyph>
<glyph name="itilde" format="1">
  <advance width="211"/>
  <unicode hex="0129"/>
  <outline>
    <contour>
      <point x="90" y="460" type="line"/>
      <point x="121" y="460" type="line"/>
      <point x="121" y="0" type="line"/>
      <point x="90" y="0" type="line"/>
    </contour>
    <contour>
      <point x="-23" y="584" type="line"/>
      <point x="-20" y="619"/>
      <point x="7" y="649"/>
      <point x="52" y="649" type="curve" smooth="yes"/>
      <point x="110" y="649"/>
      <point x="122" y="602"/>
      <point x="176" y="602" type="curve" smooth="yes"/>
      <point x="202" y="602"/>
      <point x="216" y="618"/>
      <point x="232" y="650" type="curve"/>
      <point x="252" y="635" type="line"/>
      <point x="236" y="598"/>
      <point x="210" y="576"/>
      <point x="174" y="576" type="curve" smooth="yes"/>
      <point x="119" y="576"/>
      <point x="97" y="623"/>
      <point x="52" y="623" type="curve" smooth="yes"/>
      <point x="11" y="623"/>
      <point x="-1" y="594"/>
      <point x="-1" y="572" type="curve"/>
    </contour>
  </outline>
</glyph>
<glyph name="Imacron" format="1">
  <advance width="199"/>
  <unicode hex="012A"/>
  <outline>
    <contour>
      <point x="84" y="700" type="line"/>
      <point x="116" y="700" type="line"/>
      <point x="116" y="0" type="line"/>
      <point x="84" y="0" type="line"/>
    </contour>
    <contour>
      <point x="-52" y="816" type="line"/>
      <point x="-52" y="845" type="line"/>
      <point x="298" y="845" type="line"/>
      <point x="298" y="816" type="line"/>
    </contour>
  </outline>
</glyph>
<glyph name="Iogonek" format="1">
  <advance width="199"/>
  <unicode hex="012E"/>
  <outline>
    <contour>
      <point x="84" y="700" type="line"/>
      <point x="116" y="700" type="line"/>
      <point x="116" y="0" type="line"/>
      <point x="84" y="0" type="line"/>
    </contour>
    <contour>
      <point x="141" y="-165" type="curve"/>
      <point x="156" y="-185" type="line"/>
      <point x="141" y="-205"/>
      <point x="104" y="-225"/>
      <point x="61" y="-225" type="curve" smooth="yes"/>
      <point x="-9" y="-225"/>
      <point x="-48" y="-191"/>
      <point x="-48" y="-139" type="curve"/>
      <point x="-17" y="-133" type="line"/>
      <point x="-17" y="-176"/>
      <point x="18" y="-197"/>
      <point x="62" y="-197" type="curve" smooth="yes"/>
      <point x="98" y="-197"/>
      <point x="127" y="-181"/>
    </contour>
    <contour>
      <point x="-17" y="-133" type="curve"/>
      <point x="-48" y="-139" type="line"/>
      <point x="-48" y="-73"/>
      <point x="28" y="-26"/>
      <point x="98" y="10" type="curve"/>
      <point x="116" y="-5" type="line"/>
      <point x="53" y="-34"/>
      <point x="-17" y="-82"/>
    </contour>
  </outline>
</glyph>
<glyph name="iogonek" format="1">
  <advance width="211"/>
  <unicode hex="012F"/>
  <outline>
    <contour>
      <point x="82" y="682" type="curve" smooth="yes"/>
      <point x="82" y="695"/>
      <point x="92" y="705"/>
      <point x="106" y="705" type="curve" smooth="yes"/>
      <point x="120" y="705"/>
      <point x="129" y="695"/>
      <point x="129" y="682" type="curve" smooth="yes"/>
      <point x="129" y="669"/>
      <point x="120" y="658"/>
      <point x="106" y="658" type="curve" smooth="yes"/>
      <point x="92" y="658"/>
      <point x="82" y="669"/>
    </contour>
    <contour>
      <point x="90" y="460" type="line"/>
      <point x="121" y="460" type="line"/>
      <point x="121" y="0" type="line"/>
      <point x="90" y="0" type="line"/>
    </contour>
    <contour>
      <point x="146" y="-165" type="curve"/>
      <point x="162" y="-185" type="line"/>
      <point x="147" y="-205"/>
      <point x="109" y="-225"/>
      <point x="66" y="-225" type="curve" smooth="yes"/>
      <point x="-4" y="-225"/>
      <point x="-42" y="-191"/>
      <point x="-42" y="-139" type="curve"/>
      <point x="-12" y="-133" type="line"/>
      <point x="-12" y="-176"/>
      <point x="24" y="-197"/>
      <point x="68" y="-197" type="curve" smooth="yes"/>
      <point x="104" y="-197"/>
      <point x="132" y="-181"/>
    </contour>
    <contour>
      <point x="-12" y="-133" type="curve"/>
      <point x="-42" y="-139" type="line"/>
      <point x="-42" y="-73"/>
      <point x="34" y="-26"/>
      <point x="104" y="10" type="curve"/>
      <point x="122" y="-5" type="line"/>
      <point x="59" y="-34"/>
      <point x="-12" y="-82"/>
    </contour>
  </outline>
</glyph>
<glyph name="Jcircumflex" format="1">
  <advance width="209"/>
  <unicode hex="0134"/>
  <outline>
    <contour>
      <point x="-109" y="-142" type="line"/>
      <point x="-88" y="-166"/>
      <point x="-51" y="-188"/>
      <point x="-8" y="-188" type="curve" smooth="yes"/>
      <point x="64" y="-188"/>
      <point x="91" y="-151"/>
      <point x="91" y="-50" type="curve" smooth="yes"/>
      <point x="91" y="700" type="line"/>
      <point x="123" y="700" type="line"/>
      <point x="123" y="-60" type="line" smooth="yes"/>
      <point x="123" y="-169"/>
      <point x="85" y="-220"/>
      <point x="-9" y="-220" type="curve" smooth="yes"/>
      <point x="-62" y="-220"/>
      <point x="-112" y="-186"/>
      <point x="-127" y="-166" type="curve"/>
    </contour>
    <contour>
      <point x="120" y="916" type="line"/>
      <point x="-20" y="793" type="line"/>
      <point x="-40" y="810" type="line"/>
      <point x="120" y="950" type="line"/>
      <point x="280" y="810" type="line"/>
      <point x="260" y="793" type="line"/>
    </contour>
  </outline>
</glyph>
<glyph name="jcircumflex" format="1">
  <advance width="201"/>
  <unicode hex="0135"/>
  <outline>
    <contour>
      <point x="-72" y="-150" type="line"/>
      <point x="-56" y="-171"/>
      <point x="-33" y="-189"/>
      <point x="-3" y="-189" type="curve" smooth="yes"/>
      <point x="62" y="-189"/>
      <point x="80" y="-131"/>
      <point x="80" y="-72" type="curve" smooth="yes"/>
      <point x="80" y="460" type="line"/>
      <point x="111" y="460" type="line"/>
      <point x="111" y="-76" type="line" smooth="yes"/>
      <point x="111" y="-157"/>
      <point x="80" y="-220"/>
      <point x="-4" y="-220" type="curve" smooth="yes"/>
      <point x="-47" y="-220"/>
      <point x="-75" y="-194"/>
      <point x="-90" y="-174" type="curve"/>
    </contour>
    <contour>
      <point x="120" y="676" type="line"/>
      <point x="-20" y="553" type="line"/>
      <point x="-40" y="570" type="line"/>
      <point x="120" y="710" type="line"/>
      <point x="280" y="570" type="line"/>
      <point x="260" y="553" type="line"/>
    </contour>
  </outline>
</glyph>
<glyph name="uni0136" format="1">
  <advance width="487"/>
  <unicode hex="0136"/>
  <outline>
    <contour>
      <point x="84" y="700" type="line"/>
      <point x="116" y="700" type="line"/>
      <point x="116" y="0" type="line"/>
      <point x="84" y="0" type="line"/>
    </contour>
    <contour>
      <point x="418" y="700" type="line"/>
      <point x="460" y="700" type="line"/>
      <point x="149" y="372" type="line"/>
      <point x="476" y="0" type="line"/>
      <point x="432" y="0" type="line"/>
      <point x="108" y="372" type="line"/>
    </contour>
    <contour>
      <point x="343" y="-71" type="line"/>
      <point x="374" y="-84" type="line"/>
      <point x="264" y="-334" type="line"/>
      <point x="243" y="-326" type="line"/>
    </contour>
  </outline>
</glyph>
<glyph name="uni0137" format="1">
  <advance width="392"/>
  <unicode hex="0137"/>
  <outline>
    <contour>
      <point x="77" y="780" type="line"/>
      <point x="108" y="780" type="line"/>
      <point x="108" y="0" type="line"/>
      <point x="77" y="0" type="line"/>
    </contour>
    <contour>
      <point x="326" y="460" type="line"/>
      <point x="367" y="460" type="line"/>
      <point x="138" y="270" type="line"/>
      <point x="386" y="0" type="line"/>
      <point x="346" y="0" type="line"/>
      <point x="98" y="270" type="line"/>
    </contour>
    <contour>
      <point x="278" y="-71" type="line"/>
      <point x="310" y="-84" type="line"/>
      <point x="200" y="-334" type="line"/>
      <point x="178" y="-326" type="line"/>
    </contour>
  </outline>
</glyph>
<glyph name="Lacute" format="1">
  <advance width="436"/>
  <unicode hex="0139"/>
  <outline>
    <contour>
      <point x="106" y="0" type="line"/>
      <point x="106" y="31" type="line"/>
      <point x="419" y="31" type="line"/>
      <point x="419" y="0" type="line"/>
    </contour>
    <contour>
      <point x="87" y="700" type="line"/>
      <point x="120" y="700" type="line"/>
      <point x="120" y="0" type="line"/>
      <point x="87" y="0" type="line"/>
    </contour>
    <contour>
      <point x="415" y="924" type="line"/>
      <point x="240" y="768" type="line"/>
      <point x="223" y="781" type="line"/>
      <point x="387" y="941" type="line"/>
    </contour>
  </outline>
</glyph>
<glyph name="uni013B" format="1">
  <advance width="436"/>
  <unicode hex="013B"/>
  <outline>
    <contour>
      <point x="106" y="0" type="line"/>
      <point x="106" y="31" type="line"/>
      <point x="419" y="31" type="line"/>
      <point x="419" y="0" type="line"/>
    </contour>
    <contour>
      <point x="87" y="700" type="line"/>
      <point x="120" y="700" type="line"/>
      <point x="120" y="0" type="line"/>
      <point x="87" y="0" type="line"/>
    </contour>
    <contour>
      <point x="273" y="-60" type="line"/>
      <point x="305" y="-72" type="line"/>
      <point x="195" y="-322" type="line"/>
      <point x="173" y="-315" type="line"/>
    </contour>
  </outline>
</glyph>
<glyph name="uni013C" format="1">
  <advance width="195"/>
  <unicode hex="013C"/>
  <outline>
    <contour>
      <point x="82" y="780" type="line"/>
      <point x="113" y="780" type="line"/>
      <point x="113" y="0" type="line"/>
      <point x="82" y="0" type="line"/>
    </contour>
    <contour>
      <point x="118" y="-60" type="line"/>
      <point x="150" y="-72" type="line"/>
      <point x="40" y="-322" type="line"/>
      <point x="18" y="-315" type="line"/>
    </contour>
  </outline>
</glyph>
<glyph name="Lcaron" format="1">
  <advance width="450"/>
  <unicode hex="013D"/>
  <outline>
    <contour>
      <point x="106" y="0" type="line"/>
      <point x="106" y="31" type="line"/>
      <point x="419" y="31" type="line"/>
      <point x="419" y="0" type="line"/>
    </contour>
    <contour>
      <point x="87" y="700" type="line"/>
      <point x="120" y="700" type="line"/>
      <point x="120" y="0" type="line"/>
      <point x="87" y="0" type="line"/>
    </contour>
    <contour>
      <point x="337" y="699" type="line"/>
      <point x="368" y="686" type="line"/>
      <point x="258" y="436" type="line"/>
      <point x="237" y="444" type="line"/>
    </contour>
  </outline>
</glyph>
<glyph name="lcaron" format="1">
  <advance width="230"/>
  <unicode hex="013E"/>
  <outline>
    <contour>
      <point x="82" y="780" type="line"/>
      <point x="113" y="780" type="line"/>
      <point x="113" y="0" type="line"/>
      <point x="82" y="0" type="line"/>
    </contour>
    <contour>
      <point x="312" y="769" type="line"/>
      <point x="344" y="756" type="line"/>
      <point x="234" y="506" type="line"/>
      <point x="212" y="514" type="line"/>
    </contour>
  </outline>
</glyph>
<glyph name="Ldot" format="1">
  <advance width="436"/>
  <unicode hex="013F"/>
  <outline>
    <contour>
      <point x="106" y="0" type="line"/>
      <point x="106" y="31" type="line"/>
      <point x="419" y="31" type="line"/>
      <point x="419" y="0" type="line"/>
    </contour>
    <contour>
      <point x="87" y="700" type="line"/>
      <point x="120" y="700" type="line"/>
      <point x="120" y="0" type="line"/>
      <point x="87" y="0" type="line"/>
    </contour>
    <contour>
      <point x="276" y="402" type="curve" smooth="yes"/>
      <point x="276" y="416"/>
      <point x="287" y="426"/>
      <point x="300" y="426" type="curve" smooth="yes"/>
      <point x="313" y="426"/>
      <point x="324" y="416"/>
      <point x="324" y="402" type="curve" smooth="yes"/>
      <point x="324" y="388"/>
      <point x="313" y="378"/>
      <point x="300" y="378" type="curve" smooth="yes"/>
      <point x="287" y="378"/>
      <point x="276" y="388"/>
    </contour>
  </outline>
</glyph>
<glyph name="Lslash" format="1">
  <advance width="397"/>
  <unicode hex="0141"/>
  <outline>
    <contour>
      <point x="-5" y="373" type="line"/>
      <point x="-15" y="395" type="line"/>
      <point x="255" y="565" type="line"/>
      <point x="265" y="543" type="line"/>
    </contour>
    <contour>
      <point x="97" y="0" type="line"/>
      <point x="97" y="31" type="line"/>
      <point x="388" y="31" type="line"/>
      <point x="388" y="0" type="line"/>
    </contour>
    <contour>
      <point x="80" y="700" type="line"/>
      <point x="113" y="700" type="line"/>
      <point x="113" y="0" type="line"/>
      <point x="80" y="0" type="line"/>
    </contour>
  </outline>
</glyph>
<glyph name="Nacute" format="1">
  <advance width="698"/>
  <unicode hex="0143"/>
  <outline>
    <contour>
      <point x="68" y="656" type="line"/>
      <point x="59" y="721" type="line"/>
      <point x="616" y="40" type="line"/>
      <point x="625" y="-21" type="line"/>
    </contour>
    <contour>
      <point x="592" y="700" type="line"/>
      <point x="625" y="700" type="line"/>
      <point x="625" y="-21" type="line"/>
      <point x="592" y="34" type="line"/>
    </contour>
    <contour>
      <point x="59" y="721" type="line"/>
      <point x="92" y="662" type="line"/>
      <point x="92" y="0" type="line"/>
      <point x="59" y="0" type="line"/>
    </contour>
    <contour>
      <point x="478" y="913" type="line"/>
      <point x="302" y="758" type="line"/>
      <point x="286" y="770" type="line"/>
      <point x="450" y="930" type="line"/>
    </contour>
  </outline>
</glyph>
<glyph name="nacute" format="1">
  <advance width="490"/>
  <unicode hex="0144"/>
  <outline>
    <contour>
      <point x="113" y="460" type="line"/>
      <point x="113" y="0" type="line"/>
      <point x="82" y="0" type="line"/>
      <point x="82" y="460" type="line"/>
    </contour>
    <contour>
      <point x="377" y="308" type="line" smooth="yes"/>
      <point x="377" y="388"/>
      <point x="344" y="440"/>
      <point x="262" y="440" type="curve" smooth="yes"/>
      <point x="178" y="440"/>
      <point x="113" y="366"/>
      <point x="113" y="280" type="curve"/>
      <point x="98" y="280" type="line"/>
      <point x="98" y="389"/>
      <point x="173" y="470"/>
      <point x="268" y="470" type="curve" smooth="yes"/>
      <point x="363" y="470"/>
      <point x="408" y="409"/>
      <point x="408" y="311" type="curve" smooth="yes"/>
      <point x="408" y="0" type="line"/>
      <point x="377" y="0" type="line"/>
    </contour>
    <contour>
      <point x="386" y="692" type="line"/>
      <point x="210" y="537" type="line"/>
      <point x="194" y="550" type="line"/>
      <point x="358" y="710" type="line"/>
    </contour>
  </outline>
</glyph>
<glyph name="uni0145" format="1">
  <advance width="698"/>
  <unicode hex="0145"/>
  <outline>
    <contour>
      <point x="68" y="656" type="line"/>
      <point x="59" y="721" type="line"/>
      <point x="616" y="40" type="line"/>
      <point x="625" y="-21" type="line"/>
    </contour>
    <contour>
      <point x="592" y="700" type="line"/>
      <point x="625" y="700" type="line"/>
      <point x="625" y="-21" type="line"/>
      <point x="592" y="34" type="line"/>
    </contour>
    <contour>
      <point x="59" y="721" type="line"/>
      <point x="92" y="662" type="line"/>
      <point x="92" y="0" type="line"/>
      <point x="59" y="0" type="line"/>
    </contour>
    <contour>
      <point x="359" y="-42" type="line"/>
      <point x="391" y="-54" type="line"/>
      <point x="281" y="-304" type="line"/>
      <point x="259" y="-297" type="line"/>
    </contour>
  </outline>
</glyph>
<glyph name="Omacron" format="1">
  <advance width="778"/>
  <unicode hex="014C"/>
  <outline>
    <contour>
      <point x="82" y="350" type="curve" smooth="yes"/>
      <point x="82" y="162"/>
      <point x="210" y="24"/>
      <point x="390" y="24" type="curve" smooth="yes"/>
      <point x="570" y="24"/>
      <point x="697" y="162"/>
      <point x="697" y="350" type="curve" smooth="yes"/>
      <point x="697" y="538"/>
      <point x="570" y="676"/>
      <point x="390" y="676" type="curve" smooth="yes"/>
      <point x="210" y="676"/>
      <point x="82" y="538"/>
    </contour>
    <contour>
      <point x="47" y="350" type="curve" smooth="yes"/>
      <point x="47" y="558"/>
      <point x="193" y="708"/>
      <point x="390" y="708" type="curve" smooth="yes"/>
      <point x="587" y="708"/>
      <point x="732" y="558"/>
      <point x="732" y="350" type="curve" smooth="yes"/>
      <point x="732" y="142"/>
      <point x="587" y="-8"/>
      <point x="390" y="-8" type="curve" smooth="yes"/>
      <point x="193" y="-8"/>
      <point x="47" y="142"/>
    </contour>
    <contour>
      <point x="214" y="782" type="line"/>
      <point x="214" y="812" type="line"/>
      <point x="564" y="812" type="line"/>
      <point x="564" y="782" type="line"/>
    </contour>
  </outline>
</glyph>
<glyph name="obreve" format="1">
  <advance width="553"/>
  <unicode hex="014F"/>
  <outline>
    <contour>
      <point x="42" y="230" type="curve" smooth="yes"/>
      <point x="42" y="369"/>
      <point x="143" y="470"/>
      <point x="276" y="470" type="curve" smooth="yes"/>
      <point x="409" y="470"/>
      <point x="511" y="369"/>
      <point x="511" y="230" type="curve" smooth="yes"/>
      <point x="511" y="91"/>
      <point x="409" y="-10"/>
      <point x="276" y="-10" type="curve" smooth="yes"/>
      <point x="143" y="-10"/>
      <point x="42" y="91"/>
    </contour>
    <contour>
      <point x="74" y="230" type="curve" smooth="yes"/>
      <point x="74" y="108"/>
      <point x="162" y="20"/>
      <point x="276" y="20" type="curve" smooth="yes"/>
      <point x="390" y="20"/>
      <point x="480" y="108"/>
      <point x="480" y="230" type="curve" smooth="yes"/>
      <point x="480" y="352"/>
      <point x="390" y="440"/>
      <point x="276" y="440" type="curve" smooth="yes"/>
      <point x="162" y="440"/>
      <point x="74" y="352"/>
    </contour>
    <contour>
      <point x="118" y="670" type="curve"/>
      <point x="147" y="670" type="line"/>
      <point x="147" y="616"/>
      <point x="190" y="556"/>
      <point x="276" y="556" type="curve" smooth="yes"/>
      <point x="362" y="556"/>
      <point x="406" y="616"/>
      <point x="406" y="670" type="curve"/>
      <point x="434" y="670" type="line"/>
      <point x="434" y="601"/>
      <point x="381" y="530"/>
      <point x="276" y="530" type="curve" smooth="yes"/>
      <point x="171" y="530"/>
      <point x="118" y="601"/>
    </contour>
  </outline>
</glyph>
<glyph name="OE" format="1">
  <advance width="961"/>
  <unicode hex="0152"/>
  <outline>
    <contour>
      <point x="530" y="372" type="line"/>
      <point x="530" y="402" type="line"/>
      <point x="864" y="402" type="line"/>
      <point x="864" y="372" type="line"/>
    </contour>
    <contour>
      <point x="515" y="688" type="line"/>
      <point x="548" y="688" type="line"/>
      <point x="548" y="12" type="line"/>
      <point x="515" y="12" type="line"/>
    </contour>
    <contour>
      <point x="884" y="31" type="line"/>
      <point x="884" y="0" type="line"/>
      <point x="390" y="0" type="line" smooth="yes"/>
      <point x="187" y="0"/>
      <point x="40" y="141"/>
      <point x="40" y="350" type="curve" smooth="yes"/>
      <point x="40" y="559"/>
      <point x="186" y="700"/>
      <point x="390" y="700" type="curve" smooth="yes"/>
      <point x="884" y="700" type="line"/>
      <point x="884" y="669" type="line"/>
      <point x="536" y="669" type="line"/>
      <point x="520" y="669" type="line"/>
      <point x="390" y="669" type="line" smooth="yes"/>
      <point x="208" y="669"/>
      <point x="72" y="538"/>
      <point x="72" y="350" type="curve" smooth="yes"/>
      <point x="72" y="162"/>
      <point x="208" y="31"/>
      <point x="390" y="31" type="curve" smooth="yes"/>
      <point x="516" y="31" type="line"/>
      <point x="540" y="31" type="line"/>
    </contour>
  </outline>
</glyph>
<glyph name="oe" format="1">
  <advance width="918"/>
  <unicode hex="0153"/>
  <outline>
    <contour>
      <point x="843" y="250" type="line" smooth="yes"/>
      <point x="843" y="350"/>
      <point x="773" y="442"/>
      <point x="662" y="442" type="curve" smooth="yes"/>
      <point x="547" y="442"/>
      <point x="472" y="347"/>
      <point x="472" y="240" type="curve"/>
      <point x="471" y="232" type="line"/>
      <point x="471" y="105"/>
      <point x="551" y="20"/>
      <point x="662" y="20" type="curve" smooth="yes"/>
      <point x="748" y="20"/>
      <point x="807" y="63"/>
      <point x="843" y="124" type="curve"/>
      <point x="868" y="106" type="line"/>
      <point x="822" y="36"/>
      <point x="761" y="-10"/>
      <point x="662" y="-10" type="curve" smooth="yes"/>
      <point x="530" y="-10"/>
      <point x="446" y="98"/>
      <point x="446" y="230" type="curve" smooth="yes"/>
      <point x="446" y="247"/>
      <point x="447" y="263"/>
      <point x="450" y="279" type="curve" smooth="yes"/>
      <point x="469" y="392"/>
      <point x="553" y="470"/>
      <point x="665" y="470" type="curve" smooth="yes"/>
      <point x="775" y="470"/>
      <point x="876" y="379"/>
      <point x="876" y="248" type="curve" smooth="yes"/>
      <point x="876" y="240"/>
      <point x="875" y="230"/>
      <point x="874" y="222" type="curve"/>
      <point x="842" y="230" type="line"/>
    </contour>
    <contour>
      <point x="463" y="222" type="line"/>
      <point x="463" y="250" type="line"/>
      <point x="868" y="250" type="line"/>
      <point x="874" y="222" type="line"/>
    </contour>
    <contour>
      <point x="42" y="230" type="curve" smooth="yes"/>
      <point x="42" y="379"/>
      <point x="138" y="470"/>
      <point x="256" y="470" type="curve" smooth="yes"/>
      <point x="367" y="470"/>
      <point x="460" y="379"/>
      <point x="460" y="230" type="curve" smooth="yes"/>
      <point x="460" y="81"/>
      <point x="367" y="-10"/>
      <point x="256" y="-10" type="curve" smooth="yes"/>
      <point x="138" y="-10"/>
      <point x="42" y="81"/>
    </contour>
    <contour>
      <point x="74" y="230" type="curve" smooth="yes"/>
      <point x="74" y="100"/>
      <point x="155" y="20"/>
      <point x="261" y="20" type="curve" smooth="yes"/>
      <point x="352" y="20"/>
      <point x="438" y="103"/>
      <point x="438" y="230" type="curve" smooth="yes"/>
      <point x="438" y="357"/>
      <point x="352" y="440"/>
      <point x="261" y="440" type="curve" smooth="yes"/>
      <point x="155" y="440"/>
      <point x="74" y="360"/>
    </contour>
  </outline>
</glyph>
<glyph name="scedilla" format="1">
  <advance width="403"/>
  <unicode hex="015F"/>
  <outline>
    <contour>
      <point x="62" y="151" type="line"/>
      <point x="76" y="85"/>
      <point x="117" y="20"/>
      <point x="202" y="20" type="curve" smooth="yes"/>
      <point x="268" y="20"/>
      <point x="312" y="57"/>
      <point x="312" y="119" type="curve" smooth="yes"/>
      <point x="312" y="180"/>
      <point x="258" y="206"/>
      <point x="194" y="226" type="curve" smooth="yes"/>
      <point x="124" y="248"/>
      <point x="63" y="272"/>
      <point x="63" y="356" type="curve" smooth="yes"/>
      <point x="63" y="428"/>
      <point x="127" y="468"/>
      <point x="199" y="468" type="curve" smooth="yes"/>
      <point x="277" y="468"/>
      <point x="324" y="423"/>
      <point x="342" y="372" type="curve"/>
      <point x="316" y="357" type="line"/>
      <point x="298" y="400"/>
      <point x="261" y="439"/>
      <point x="199" y="439" type="curve" smooth="yes"/>
      <point x="141" y="439"/>
      <point x="94" y="410"/>
      <point x="94" y="354" type="curve" smooth="yes"/>
      <point x="94" y="286"/>
      <point x="152" y="268"/>
      <point x="216" y="248" type="curve" smooth="yes"/>
      <point x="282" y="226"/>
      <point x="344" y="191"/>
      <point x="344" y="121" type="curve" smooth="yes"/>
      <point x="344" y="36"/>
      <point x="285" y="-10"/>
      <point x="200" y="-10" type="curve" smooth="yes"/>
      <point x="101" y="-10"/>
      <point x="50" y="63"/>
      <point x="36" y="138" type="curve"/>
    </contour>
    <contour>
      <point x="198" y="16" type="line"/>
      <point x="226" y="16" type="line"/>
      <point x="166" y="-72" type="line"/>
      <point x="135" y="-96" type="line"/>
    </contour>
    <contour>
      <point x="292" y="-128" type="curve"/>
      <point x="268" y="-128" type="line"/>
      <point x="268" y="-90"/>
      <point x="238" y="-73"/>
      <point x="208" y="-73" type="curve" smooth="yes"/>
      <point x="184" y="-73"/>
      <point x="158" y="-80"/>
      <point x="135" y="-96" type="curve"/>
      <point x="154" y="-76" type="line"/>
      <point x="180" y="-60"/>
      <point x="191" y="-54"/>
      <point x="218" y="-54" type="curve" smooth="yes"/>
      <point x="251" y="-54"/>
      <point x="292" y="-79"/>
    </contour>
    <contour>
      <point x="292" y="-128" type="line"/>
      <point x="292" y="-189"/>
      <point x="239" y="-222"/>
      <point x="184" y="-222" type="curve" smooth="yes"/>
      <point x="147" y="-222"/>
      <point x="124" y="-212"/>
      <point x="96" y="-184" type="curve"/>
      <point x="110" y="-168" type="line"/>
      <point x="136" y="-190"/>
      <point x="153" y="-199"/>
      <point x="184" y="-199" type="curve" smooth="yes"/>
      <point x="227" y="-199"/>
      <point x="268" y="-174"/>
      <point x="268" y="-128" type="curve"/>
    </contour>
  </outline>
</glyph>
<glyph name="Ydieresis" format="1">
  <advance width="523"/>
  <unicode hex="0178"/>
  <outline>
    <contour>
      <point x="242" y="300" type="line"/>
      <point x="274" y="300" type="line"/>
      <point x="274" y="0" type="line"/>
      <point x="242" y="0" type="line"/>
    </contour>
    <contour>
      <point x="474" y="700" type="line"/>
      <point x="511" y="700" type="line"/>
      <point x="258" y="248" type="line"/>
      <point x="12" y="700" type="line"/>
      <point x="50" y="700" type="line"/>
      <point x="258" y="310" type="line"/>
    </contour>
    <contour>
      <point x="330" y="793" type="curve" smooth="yes"/>
      <point x="330" y="807"/>
      <point x="342" y="817"/>
      <point x="355" y="817" type="curve" smooth="yes"/>
      <point x="368" y="817"/>
      <point x="380" y="807"/>
      <point x="380" y="793" type="curve" smooth="yes"/>
      <point x="380" y="779"/>
      <point x="368" y="768"/>
      <point x="355" y="768" type="curve" smooth="yes"/>
      <point x="342" y="768"/>
      <point x="330" y="779"/>
    </contour>
    <contour>
      <point x="144" y="793" type="curve" smooth="yes"/>
      <point x="144" y="807"/>
      <point x="156" y="817"/>
      <point x="169" y="817" type="curve" smooth="yes"/>
      <point x="182" y="817"/>
      <point x="194" y="807"/>
      <point x="194" y="793" type="curve" smooth="yes"/>
      <point x="194" y="779"/>
      <point x="182" y="768"/>
      <point x="169" y="768" type="curve" smooth="yes"/>
      <point x="156" y="768"/>
      <point x="144" y="779"/>
    </contour>
  </outline>
</glyph>
<glyph name="Zacute" format="1">
  <advance width="538"/>
  <unicode hex="0179"/>
  <outline>
    <contour>
      <point x="38" y="668" type="line"/>
      <point x="38" y="700" type="line"/>
      <point x="522" y="700" type="line"/>
      <point x="75" y="32" type="line"/>
      <point x="508" y="32" type="line"/>
      <point x="508" y="0" type="line"/>
      <point x="18" y="0" type="line"/>
      <point x="465" y="668" type="line"/>
    </contour>
    <contour>
      <point x="435" y="922" type="line"/>
      <point x="260" y="768" type="line"/>
      <point x="243" y="780" type="line"/>
      <point x="407" y="940" type="line"/>
    </contour>
  </outline>
</glyph>
<glyph name="zacute" format="1">
  <advance width="439"/>
  <unicode hex="017A"/>
  <outline>
    <contour>
      <point x="356" y="430" type="line"/>
      <point x="42" y="430" type="line"/>
      <point x="42" y="460" type="line"/>
      <point x="414" y="460" type="line"/>
      <point x="76" y="30" type="line"/>
      <point x="414" y="30" type="line"/>
      <point x="414" y="0" type="line"/>
      <point x="18" y="0" type="line"/>
    </contour>
    <contour>
      <point x="383" y="684" type="line"/>
      <point x="208" y="530" type="line"/>
      <point x="191" y="542" type="line"/>
      <point x="355" y="702" type="line"/>
    </contour>
  </outline>
</glyph>
<glyph name="Zdotaccent" format="1">
  <advance width="538"/>
  <unicode hex="017B"/>
  <outline>
    <contour>
      <point x="38" y="668" type="line"/>
      <point x="38" y="700" type="line"/>
      <point x="522" y="700" type="line"/>
      <point x="75" y="32" type="line"/>
      <point x="508" y="32" type="line"/>
      <point x="508" y="0" type="line"/>
      <point x="18" y="0" type="line"/>
      <point x="465" y="668" type="line"/>
    </contour>
    <contour>
      <point x="256" y="792" type="curve" smooth="yes"/>
      <point x="256" y="806"/>
      <point x="267" y="817"/>
      <point x="280" y="817" type="curve" smooth="yes"/>
      <point x="293" y="817"/>
      <point x="304" y="806"/>
      <point x="304" y="792" type="curve" smooth="yes"/>
      <point x="304" y="778"/>
      <point x="293" y="768"/>
      <point x="280" y="768" type="curve" smooth="yes"/>
      <point x="267" y="768"/>
      <point x="256" y="778"/>
    </contour>
  </outline>
</glyph>
<glyph name="zdotaccent" format="1">
  <advance width="439"/>
  <unicode hex="017C"/>
  <outline>
    <contour>
      <point x="356" y="430" type="line"/>
      <point x="42" y="430" type="line"/>
      <point x="42" y="460" type="line"/>
      <point x="414" y="460" type="line"/>
      <point x="76" y="30" type="line"/>
      <point x="414" y="30" type="line"/>
      <point x="414" y="0" type="line"/>
      <point x="18" y="0" type="line"/>
    </contour>
    <contour>
      <point x="204" y="574" type="curve" smooth="yes"/>
      <point x="204" y="588"/>
      <point x="215" y="599"/>
      <point x="228" y="599" type="curve" smooth="yes"/>
      <point x="241" y="599"/>
      <point x="252" y="588"/>
      <point x="252" y="574" type="curve" smooth="yes"/>
      <point x="252" y="560"/>
      <point x="241" y="550"/>
      <point x="228" y="550" type="curve" smooth="yes"/>
      <point x="215" y="550"/>
      <point x="204" y="560"/>
    </contour>
  </outline>
</glyph>
<glyph name="zcaron" format="1">
  <advance width="439"/>
  <unicode hex="017E"/>
  <outline>
    <contour>
      <point x="53" y="30" type="line"/>
      <point x="414" y="30" type="line"/>
      <point x="414" y="0" type="line"/>
      <point x="18" y="0" type="line"/>
    </contour>
    <contour>
      <point x="42" y="460" type="line"/>
      <point x="414" y="460" type="line"/>
      <point x="382" y="430" type="line"/>
      <point x="42" y="430" type="line"/>
    </contour>
    <contour>
      <point x="378" y="460" type="line"/>
      <point x="414" y="460" type="line"/>
      <point x="54" y="0" type="line"/>
      <point x="18" y="0" type="line"/>
    </contour>
    <contour>
      <point x="245" y="564" type="line"/>
      <point x="384" y="688" type="line"/>
      <point x="405" y="670" type="line"/>
      <point x="245" y="530" type="line"/>
      <point x="85" y="670" type="line"/>
      <point x="106" y="688" type="line"/>
    </contour>
  </outline>
</glyph>
<glyph name="caron" format="1">
  <advance width="480"/>
  <unicode hex="02C7"/>
  <outline>
    <contour>
      <point x="240" y="604" type="line"/>
      <point x="380" y="728" type="line"/>
      <point x="400" y="710" type="line"/>
      <point x="240" y="570" type="line"/>
      <point x="80" y="710" type="line"/>
      <point x="100" y="728" type="line"/>
    </contour>
  </outline>
</glyph>
<glyph name="breve" format="1">
  <advance width="546"/>
  <unicode hex="02D8"/>
  <outline>
    <contour>
      <point x="115" y="850" type="curve"/>
      <point x="144" y="850" type="line"/>
      <point x="144" y="796"/>
      <point x="187" y="736"/>
      <point x="273" y="736" type="curve" smooth="yes"/>
      <point x="359" y="736"/>
      <point x="402" y="796"/>
      <point x="402" y="850" type="curve"/>
      <point x="431" y="850" type="line"/>
      <point x="431" y="781"/>
      <point x="378" y="710"/>
      <point x="273" y="710" type="curve" smooth="yes"/>
      <point x="168" y="710"/>
      <point x="115" y="781"/>
    </contour>
  </outline>
</glyph>
<glyph name="figuredash" format="1">
  <advance width="590"/>
  <unicode hex="2012"/>
  <outline>
    <contour>
      <point x="70" y="246" type="line"/>
      <point x="70" y="275" type="line"/>
      <point x="520" y="275" type="line"/>
      <point x="520" y="246" type="line"/>
    </contour>
  </outline>
</glyph>
<glyph name="ellipsis" format="1">
  <advance width="838"/>
  <unicode hex="2026"/>
  <outline>
    <contour>
      <point x="112" y="12" type="curve" smooth="yes"/>
      <point x="112" y="26"/>
      <point x="123" y="37"/>
      <point x="136" y="37" type="curve" smooth="yes"/>
      <point x="149" y="37"/>
      <point x="161" y="26"/>
      <point x="161" y="12" type="curve" smooth="yes"/>
      <point x="161" y="-2"/>
      <point x="149" y="-12"/>
      <point x="136" y="-12" type="curve" smooth="yes"/>
      <point x="123" y="-12"/>
      <point x="112" y="-2"/>
    </contour>
    <contour>
      <point x="395" y="12" type="curve" smooth="yes"/>
      <point x="395" y="26"/>
      <point x="406" y="37"/>
      <point x="419" y="37" type="curve" smooth="yes"/>
      <point x="432" y="37"/>
      <point x="444" y="26"/>
      <point x="444" y="12" type="curve" smooth="yes"/>
      <point x="444" y="-2"/>
      <point x="432" y="-12"/>
      <point x="419" y="-12" type="curve" smooth="yes"/>
      <point x="406" y="-12"/>
      <point x="395" y="-2"/>
    </contour>
    <contour>
      <point x="678" y="12" type="curve" smooth="yes"/>
      <point x="678" y="26"/>
      <point x="689" y="37"/>
      <point x="702" y="37" type="curve" smooth="yes"/>
      <point x="715" y="37"/>
      <point x="726" y="26"/>
      <point x="726" y="12" type="curve" smooth="yes"/>
      <point x="726" y="-2"/>
      <point x="715" y="-12"/>
      <point x="702" y="-12" type="curve" smooth="yes"/>
      <point x="689" y="-12"/>
      <point x="678" y="-2"/>
    </contour>
  </outline>
</glyph>
<glyph name="guilsinglleft" format="1">
  <advance width="332"/>
  <unicode hex="2039"/>
  <outline>
    <contour>
      <point x="68" y="249" type="line"/>
      <point x="40" y="255" type="line"/>
      <point x="242" y="490" type="line"/>
      <point x="262" y="472" type="line"/>
    </contour>
    <contour>
      <point x="40" y="255" type="line"/>
      <point x="68" y="264" type="line"/>
      <point x="262" y="38" type="line"/>
      <point x="242" y="20" type="line"/>
    </contour>
  </outline>
</glyph>
<glyph name="guilsinglright" format="1">
  <advance width="350"/>
  <unicode hex="203A"/>
  <outline>
    <contour>
      <point x="282" y="261" type="line"/>
      <point x="310" y="255" type="line"/>
      <point x="108" y="20" type="line"/>
      <point x="88" y="38" type="line"/>
    </contour>
    <contour>
      <point x="310" y="255" type="line"/>
      <point x="282" y="246" type="line"/>
      <point x="88" y="472" type="line"/>
      <point x="108" y="490" type="line"/>
    </contour>
  </outline>
</glyph>
<glyph name="uni2074" format="1">
  <advance width="375"/>
  <unicode hex="2074"/>
  <outline>
    <contour>
      <point x="34" y="364" type="line"/>
      <point x="50" y="382" type="line"/>
      <point x="259" y="382" type="line" smooth="yes"/>
      <point x="264" y="382" type="line" smooth="yes"/>
      <point x="336" y="382" type="line"/>
      <point x="336" y="364" type="line"/>
    </contour>
    <contour>
      <point x="54" y="364" type="line"/>
      <point x="34" y="364" type="line"/>
      <point x="264" y="700" type="line"/>
      <point x="272" y="700" type="line"/>
      <point x="272" y="280" type="line"/>
      <point x="251" y="280" type="line"/>
      <point x="251" y="372" type="line" smooth="yes"/>
      <point x="251" y="375" type="line" smooth="yes"/>
      <point x="251" y="652" type="line"/>
    </contour>
  </outline>
</glyph>
<glyph name="uni2078" format="1">
  <advance width="308"/>
  <unicode hex="2078"/>
  <outline>
    <contour>
      <point x="46" y="603" type="curve" smooth="yes"/>
      <point x="46" y="658"/>
      <point x="92" y="706"/>
      <point x="154" y="706" type="curve" smooth="yes"/>
      <point x="216" y="706"/>
      <point x="262" y="658"/>
      <point x="262" y="603" type="curve" smooth="yes"/>
      <point x="262" y="542"/>
      <point x="210" y="498"/>
      <point x="154" y="498" type="curve" smooth="yes"/>
      <point x="98" y="498"/>
      <point x="46" y="542"/>
    </contour>
    <contour>
      <point x="66" y="602" type="curve" smooth="yes"/>
      <point x="66" y="550"/>
      <point x="114" y="512"/>
      <point x="154" y="512" type="curve" smooth="yes"/>
      <point x="194" y="512"/>
      <point x="242" y="550"/>
      <point x="242" y="602" type="curve" smooth="yes"/>
      <point x="242" y="650"/>
      <point x="206" y="688"/>
      <point x="154" y="688" type="curve" smooth="yes"/>
      <point x="102" y="688"/>
      <point x="66" y="650"/>
    </contour>
    <contour>
      <point x="34" y="392" type="curve" smooth="yes"/>
      <point x="34" y="460"/>
      <point x="92" y="506"/>
      <point x="154" y="506" type="curve" smooth="yes"/>
      <point x="216" y="506"/>
      <point x="274" y="460"/>
      <point x="274" y="392" type="curve" smooth="yes"/>
      <point x="274" y="327"/>
      <point x="229" y="274"/>
      <point x="154" y="274" type="curve" smooth="yes"/>
      <point x="79" y="274"/>
      <point x="34" y="327"/>
    </contour>
    <contour>
      <point x="52" y="394" type="curve" smooth="yes"/>
      <point x="52" y="334"/>
      <point x="93" y="292"/>
      <point x="154" y="292" type="curve" smooth="yes"/>
      <point x="215" y="292"/>
      <point x="256" y="334"/>
      <point x="256" y="394" type="curve" smooth="yes"/>
      <point x="256" y="452"/>
      <point x="204" y="494"/>
      <point x="154" y="494" type="curve" smooth="yes"/>
      <point x="104" y="494"/>
      <point x="52" y="452"/>
    </contour>
  </outline>
</glyph>
<glyph name="uni2080" format="1">
  <advance width="345"/>
  <unicode hex="2080"/>
  <outline>
    <contour>
      <point x="54" y="210" type="curve" smooth="yes"/>
      <point x="54" y="102"/>
      <point x="97" y="12"/>
      <point x="172" y="12" type="curve" smooth="yes"/>
      <point x="247" y="12"/>
      <point x="292" y="102"/>
      <point x="292" y="210" type="curve" smooth="yes"/>
      <point x="292" y="318"/>
      <point x="247" y="408"/>
      <point x="172" y="408" type="curve" smooth="yes"/>
      <point x="97" y="408"/>
      <point x="54" y="318"/>
    </contour>
    <contour>
      <point x="34" y="210" type="curve" smooth="yes"/>
      <point x="34" y="331"/>
      <point x="86" y="426"/>
      <point x="172" y="426" type="curve" smooth="yes"/>
      <point x="258" y="426"/>
      <point x="312" y="331"/>
      <point x="312" y="210" type="curve" smooth="yes"/>
      <point x="312" y="89"/>
      <point x="258" y="-6"/>
      <point x="172" y="-6" type="curve" smooth="yes"/>
      <point x="86" y="-6"/>
      <point x="34" y="89"/>
    </contour>
  </outline>
</glyph>
<glyph name="uni2083" format="1">
  <advance width="316"/>
  <unicode hex="2083"/>
  <outline>
    <contour>
      <point x="140" y="214" type="curve"/>
      <point x="140" y="228" type="line"/>
      <point x="194" y="228"/>
      <point x="254" y="262"/>
      <point x="254" y="318" type="curve" smooth="yes"/>
      <point x="254" y="365"/>
      <point x="222" y="408"/>
      <point x="162" y="408" type="curve" smooth="yes"/>
      <point x="105" y="408"/>
      <point x="66" y="370"/>
      <point x="66" y="316" type="curve"/>
      <point x="46" y="316" type="line"/>
      <point x="46" y="381"/>
      <point x="93" y="426"/>
      <point x="162" y="426" type="curve" smooth="yes"/>
      <point x="234" y="426"/>
      <point x="273" y="373"/>
      <point x="273" y="318" type="curve" smooth="yes"/>
      <point x="273" y="255"/>
      <point x="208" y="214"/>
    </contour>
    <contour>
      <point x="158" y="-6" type="curve" smooth="yes"/>
      <point x="77" y="-6"/>
      <point x="28" y="46"/>
      <point x="28" y="111" type="curve"/>
      <point x="48" y="111" type="line"/>
      <point x="48" y="54"/>
      <point x="89" y="12"/>
      <point x="158" y="12" type="curve" smooth="yes"/>
      <point x="223" y="12"/>
      <point x="266" y="52"/>
      <point x="266" y="108" type="curve" smooth="yes"/>
      <point x="266" y="176"/>
      <point x="194" y="210"/>
      <point x="140" y="210" type="curve"/>
      <point x="140" y="223" type="line"/>
      <point x="208" y="223"/>
      <point x="285" y="186"/>
      <point x="285" y="107" type="curve" smooth="yes"/>
      <point x="285" y="40"/>
      <point x="233" y="-6"/>
    </contour>
  </outline>
</glyph>
<glyph name="uni2084" format="1">
  <advance width="375"/>
  <unicode hex="2084"/>
  <outline>
    <contour>
      <point x="34" y="84" type="line"/>
      <point x="50" y="102" type="line"/>
      <point x="259" y="102" type="line" smooth="yes"/>
      <point x="264" y="102" type="line" smooth="yes"/>
      <point x="336" y="102" type="line"/>
      <point x="336" y="84" type="line"/>
    </contour>
    <contour>
      <point x="54" y="84" type="line"/>
      <point x="34" y="84" type="line"/>
      <point x="264" y="420" type="line"/>
      <point x="272" y="420" type="line"/>
      <point x="272" y="0" type="line"/>
      <point x="251" y="0" type="line"/>
      <point x="251" y="92" type="line" smooth="yes"/>
      <point x="251" y="95" type="line" smooth="yes"/>
      <point x="251" y="372" type="line"/>
    </contour>
  </outline>
</glyph>
<glyph name="uni2085" format="1">
  <advance width="345"/>
  <unicode hex="2085"/>
  <outline>
    <contour>
      <point x="304" y="136" type="curve" smooth="yes"/>
      <point x="304" y="41"/>
      <point x="243" y="-8"/>
      <point x="166" y="-8" type="curve" smooth="yes"/>
      <point x="98" y="-8"/>
      <point x="58" y="28"/>
      <point x="34" y="80" type="curve"/>
      <point x="50" y="91" type="line"/>
      <point x="71" y="43"/>
      <point x="108" y="10"/>
      <point x="166" y="10" type="curve" smooth="yes"/>
      <point x="234" y="10"/>
      <point x="284" y="55"/>
      <point x="284" y="136" type="curve" smooth="yes"/>
      <point x="284" y="204"/>
      <point x="237" y="252"/>
      <point x="177" y="252" type="curve" smooth="yes"/>
      <point x="129" y="252"/>
      <point x="92" y="232"/>
      <point x="58" y="194" type="curve"/>
      <point x="74" y="220" type="line"/>
      <point x="95" y="248"/>
      <point x="136" y="270"/>
      <point x="184" y="270" type="curve" smooth="yes"/>
      <point x="252" y="270"/>
      <point x="304" y="215"/>
    </contour>
    <contour>
      <point x="128" y="400" type="line"/>
      <point x="84" y="224" type="line"/>
      <point x="58" y="194" type="line"/>
      <point x="114" y="418" type="line"/>
      <point x="312" y="418" type="line"/>
      <point x="312" y="400" type="line"/>
    </contour>
  </outline>
</glyph>
<glyph name="uni2087" format="1">
  <advance width="352"/>
  <unicode hex="2087"/>
  <outline>
    <contour>
      <point x="34" y="402" type="line"/>
      <point x="34" y="420" type="line"/>
      <point x="319" y="420" type="line"/>
      <point x="104" y="0" type="line"/>
      <point x="82" y="0" type="line"/>
      <point x="290" y="402" type="line"/>
    </contour>
  </outline>
</glyph>
<glyph name="Euro" format="1">
  <advance width="664"/>
  <unicode hex="20AC"/>
  <outline>
    <contour>
      <point x="57" y="434" type="line"/>
      <point x="57" y="455" type="line"/>
      <point x="558" y="455" type="line"/>
      <point x="558" y="434" type="line"/>
    </contour>
    <contour>
      <point x="57" y="314" type="line"/>
      <point x="57" y="335" type="line"/>
      <point x="532" y="335" type="line"/>
      <point x="532" y="314" type="line"/>
    </contour>
    <contour>
      <point x="158" y="350" type="curve" smooth="yes"/>
      <point x="158" y="158"/>
      <point x="262" y="21"/>
      <point x="412" y="21" type="curve" smooth="yes"/>
      <point x="469" y="21"/>
      <point x="521" y="39"/>
      <point x="562" y="72" type="curve"/>
      <point x="562" y="31" type="line"/>
      <point x="517" y="5"/>
      <point x="466" y="-10"/>
      <point x="412" y="-10" type="curve" smooth="yes"/>
      <point x="238" y="-10"/>
      <point x="126" y="141"/>
      <point x="126" y="350" type="curve" smooth="yes"/>
      <point x="126" y="559"/>
      <point x="238" y="710"/>
      <point x="412" y="710" type="curve" smooth="yes"/>
      <point x="466" y="710"/>
      <point x="517" y="695"/>
      <point x="562" y="669" type="curve"/>
      <point x="562" y="628" type="line"/>
      <point x="521" y="661"/>
      <point x="469" y="679"/>
      <point x="412" y="679" type="curve" smooth="yes"/>
      <point x="254" y="679"/>
      <point x="158" y="542"/>
    </contour>
  </outline>
</glyph>
<glyph name="twothirds" format="1">
  <advance width="882"/>
  <unicode hex="2154"/>
  <outline>
    <contour>
      <point x="732" y="700" type="line"/>
      <point x="760" y="700" type="line"/>
      <point x="203" y="0" type="line"/>
      <point x="175" y="0" type="line"/>
    </contour>
    <contour>
      <point x="32" y="282" type="line"/>
      <point x="226" y="486" type="line" smooth="yes"/>
      <point x="254" y="516"/>
      <point x="279" y="547"/>
      <point x="279" y="592" type="curve" smooth="yes"/>
      <point x="279" y="636"/>
      <point x="252" y="690"/>
      <point x="182" y="690" type="curve" smooth="yes"/>
      <point x="116" y="690"/>
      <point x="72" y="636"/>
      <point x="72" y="558" type="curve"/>
      <point x="52" y="558" type="line"/>
      <point x="52" y="647"/>
      <point x="104" y="709"/>
      <point x="182" y="709" type="curve" smooth="yes"/>
      <point x="266" y="709"/>
      <point x="299" y="642"/>
      <point x="299" y="590" type="curve" smooth="yes"/>
      <point x="299" y="543"/>
      <point x="273" y="507"/>
      <point x="242" y="475" type="curve" smooth="yes"/>
      <point x="74" y="300" type="line"/>
      <point x="312" y="300" type="line"/>
      <point x="312" y="282" type="line"/>
    </contour>
    <contour>
      <point x="706" y="214" type="curve"/>
      <point x="706" y="228" type="line"/>
      <point x="760" y="228"/>
      <point x="818" y="262"/>
      <point x="818" y="318" type="curve" smooth="yes"/>
      <point x="818" y="365"/>
      <point x="786" y="408"/>
      <point x="726" y="408" type="curve" smooth="yes"/>
      <point x="669" y="408"/>
      <point x="630" y="370"/>
      <point x="630" y="316" type="curve"/>
      <point x="612" y="316" type="line"/>
      <point x="612" y="381"/>
      <point x="657" y="426"/>
      <point x="726" y="426" type="curve" smooth="yes"/>
      <point x="798" y="426"/>
      <point x="838" y="373"/>
      <point x="838" y="318" type="curve" smooth="yes"/>
      <point x="838" y="255"/>
      <point x="774" y="214"/>
    </contour>
    <contour>
      <point x="724" y="-6" type="curve" smooth="yes"/>
      <point x="643" y="-6"/>
      <point x="594" y="46"/>
      <point x="594" y="111" type="curve"/>
      <point x="614" y="111" type="line"/>
      <point x="614" y="54"/>
      <point x="655" y="12"/>
      <point x="724" y="12" type="curve" smooth="yes"/>
      <point x="789" y="12"/>
      <point x="830" y="52"/>
      <point x="830" y="108" type="curve" smooth="yes"/>
      <point x="830" y="176"/>
      <point x="760" y="210"/>
      <point x="706" y="210" type="curve"/>
      <point x="706" y="223" type="line"/>
      <point x="774" y="223"/>
      <point x="850" y="186"/>
      <point x="850" y="107" type="curve" smooth="yes"/>
      <point x="850" y="40"/>
      <point x="799" y="-6"/>
    </contour>
  </outline>
</glyph>
<glyph name="uni2155" format="1">
  <advance width="744"/>
  <unicode hex="2155"/>
  <outline>
    <contour>
      <point x="605" y="700" type="line"/>
      <point x="633" y="700" type="line"/>
      <point x="76" y="0" type="line"/>
      <point x="48" y="0" type="line"/>
    </contour>
    <contour>
      <point x="24" y="650" type="line"/>
      <point x="24" y="670" type="line"/>
      <point x="142" y="698" type="line"/>
      <point x="142" y="274" type="line"/>
      <point x="123" y="274" type="line"/>
      <point x="123" y="674" type="line"/>
    </contour>
    <contour>
      <point x="692" y="136" type="curve" smooth="yes"/>
      <point x="692" y="41"/>
      <point x="631" y="-8"/>
      <point x="554" y="-8" type="curve" smooth="yes"/>
      <point x="486" y="-8"/>
      <point x="446" y="28"/>
      <point x="422" y="80" type="curve"/>
      <point x="438" y="91" type="line"/>
      <point x="459" y="43"/>
      <point x="496" y="10"/>
      <point x="554" y="10" type="curve" smooth="yes"/>
      <point x="622" y="10"/>
      <point x="672" y="55"/>
      <point x="672" y="136" type="curve" smooth="yes"/>
      <point x="672" y="204"/>
      <point x="625" y="252"/>
      <point x="565" y="252" type="curve" smooth="yes"/>
      <point x="517" y="252"/>
      <point x="480" y="232"/>
      <point x="446" y="194" type="curve"/>
      <point x="462" y="220" type="line"/>
      <point x="483" y="248"/>
      <point x="524" y="270"/>
      <point x="572" y="270" type="curve" smooth="yes"/>
      <point x="640" y="270"/>
      <point x="692" y="215"/>
    </contour>
    <contour>
      <point x="516" y="400" type="line"/>
      <point x="472" y="224" type="line"/>
      <point x="446" y="194" type="line"/>
      <point x="502" y="418" type="line"/>
      <point x="700" y="418" type="line"/>
      <point x="700" y="400" type="line"/>
    </contour>
  </outline>
</glyph>
<glyph name="uni2156" format="1">
  <advance width="871"/>
  <unicode hex="2156"/>
  <outline>
    <contour>
      <point x="732" y="700" type="line"/>
      <point x="760" y="700" type="line"/>
      <point x="203" y="0" type="line"/>
      <point x="175" y="0" type="line"/>
    </contour>
    <contour>
      <point x="32" y="282" type="line"/>
      <point x="226" y="486" type="line" smooth="yes"/>
      <point x="254" y="516"/>
      <point x="279" y="547"/>
      <point x="279" y="592" type="curve" smooth="yes"/>
      <point x="279" y="636"/>
      <point x="252" y="690"/>
      <point x="182" y="690" type="curve" smooth="yes"/>
      <point x="116" y="690"/>
      <point x="72" y="636"/>
      <point x="72" y="558" type="curve"/>
      <point x="52" y="558" type="line"/>
      <point x="52" y="647"/>
      <point x="104" y="709"/>
      <point x="182" y="709" type="curve" smooth="yes"/>
      <point x="266" y="709"/>
      <point x="299" y="642"/>
      <point x="299" y="590" type="curve" smooth="yes"/>
      <point x="299" y="543"/>
      <point x="273" y="507"/>
      <point x="242" y="475" type="curve" smooth="yes"/>
      <point x="74" y="300" type="line"/>
      <point x="312" y="300" type="line"/>
      <point x="312" y="282" type="line"/>
    </contour>
    <contour>
      <point x="820" y="136" type="curve" smooth="yes"/>
      <point x="820" y="41"/>
      <point x="757" y="-8"/>
      <point x="680" y="-8" type="curve" smooth="yes"/>
      <point x="612" y="-8"/>
      <point x="572" y="28"/>
      <point x="548" y="80" type="curve"/>
      <point x="565" y="91" type="line"/>
      <point x="586" y="43"/>
      <point x="622" y="10"/>
      <point x="680" y="10" type="curve" smooth="yes"/>
      <point x="748" y="10"/>
      <point x="799" y="55"/>
      <point x="799" y="136" type="curve" smooth="yes"/>
      <point x="799" y="204"/>
      <point x="752" y="252"/>
      <point x="692" y="252" type="curve" smooth="yes"/>
      <point x="644" y="252"/>
      <point x="608" y="232"/>
      <point x="574" y="194" type="curve"/>
      <point x="590" y="220" type="line"/>
      <point x="611" y="248"/>
      <point x="650" y="270"/>
      <point x="698" y="270" type="curve" smooth="yes"/>
      <point x="766" y="270"/>
      <point x="820" y="215"/>
    </contour>
    <contour>
      <point x="643" y="400" type="line"/>
      <point x="600" y="224" type="line"/>
      <point x="574" y="194" type="line"/>
      <point x="628" y="418" type="line"/>
      <point x="826" y="418" type="line"/>
      <point x="826" y="400" type="line"/>
    </contour>
  </outline>
</glyph>
<glyph name="uni2157" format="1">
  <advance width="831"/>
  <unicode hex="2157"/>
  <outline>
    <contour>
      <point x="692" y="700" type="line"/>
      <point x="720" y="700" type="line"/>
      <point x="163" y="0" type="line"/>
      <point x="135" y="0" type="line"/>
    </contour>
    <contour>
      <point x="146" y="494" type="curve"/>
      <point x="146" y="508" type="line"/>
      <point x="200" y="508"/>
      <point x="258" y="542"/>
      <point x="258" y="598" type="curve" smooth="yes"/>
      <point x="258" y="645"/>
      <point x="226" y="688"/>
      <point x="166" y="688" type="curve" smooth="yes"/>
      <point x="109" y="688"/>
      <point x="70" y="650"/>
      <point x="70" y="596" type="curve"/>
      <point x="52" y="596" type="line"/>
      <point x="52" y="661"/>
      <point x="97" y="706"/>
      <point x="166" y="706" type="curve" smooth="yes"/>
      <point x="238" y="706"/>
      <point x="278" y="653"/>
      <point x="278" y="598" type="curve" smooth="yes"/>
      <point x="278" y="535"/>
      <point x="214" y="494"/>
    </contour>
    <contour>
      <point x="164" y="274" type="curve" smooth="yes"/>
      <point x="83" y="274"/>
      <point x="34" y="326"/>
      <point x="34" y="391" type="curve"/>
      <point x="54" y="391" type="line"/>
      <point x="54" y="334"/>
      <point x="95" y="292"/>
      <point x="164" y="292" type="curve" smooth="yes"/>
      <point x="229" y="292"/>
      <point x="270" y="332"/>
      <point x="270" y="388" type="curve" smooth="yes"/>
      <point x="270" y="456"/>
      <point x="200" y="490"/>
      <point x="146" y="490" type="curve"/>
      <point x="146" y="503" type="line"/>
      <point x="214" y="503"/>
      <point x="290" y="466"/>
      <point x="290" y="387" type="curve" smooth="yes"/>
      <point x="290" y="320"/>
      <point x="239" y="274"/>
    </contour>
    <contour>
      <point x="780" y="136" type="curve" smooth="yes"/>
      <point x="780" y="41"/>
      <point x="717" y="-8"/>
      <point x="640" y="-8" type="curve" smooth="yes"/>
      <point x="572" y="-8"/>
      <point x="532" y="28"/>
      <point x="508" y="80" type="curve"/>
      <point x="525" y="91" type="line"/>
      <point x="546" y="43"/>
      <point x="582" y="10"/>
      <point x="640" y="10" type="curve" smooth="yes"/>
      <point x="708" y="10"/>
      <point x="759" y="55"/>
      <point x="759" y="136" type="curve" smooth="yes"/>
      <point x="759" y="204"/>
      <point x="712" y="252"/>
      <point x="652" y="252" type="curve" smooth="yes"/>
      <point x="604" y="252"/>
      <point x="568" y="232"/>
      <point x="534" y="194" type="curve"/>
      <point x="550" y="220" type="line"/>
      <point x="571" y="248"/>
      <point x="610" y="270"/>
      <point x="658" y="270" type="curve" smooth="yes"/>
      <point x="726" y="270"/>
      <point x="780" y="215"/>
    </contour>
    <contour>
      <point x="603" y="400" type="line"/>
      <point x="560" y="224" type="line"/>
      <point x="534" y="194" type="line"/>
      <point x="588" y="418" type="line"/>
      <point x="786" y="418" type="line"/>
      <point x="786" y="400" type="line"/>
    </contour>
  </outline>
</glyph>
<glyph name="uni215A" format="1">
  <advance width="856"/>
  <unicode hex="215A"/>
  <outline>
    <contour>
      <point x="727" y="700" type="line"/>
      <point x="755" y="700" type="line"/>
      <point x="198" y="0" type="line"/>
      <point x="170" y="0" type="line"/>
    </contour>
    <contour>
      <point x="304" y="416" type="curve" smooth="yes"/>
      <point x="304" y="321"/>
      <point x="243" y="272"/>
      <point x="166" y="272" type="curve" smooth="yes"/>
      <point x="98" y="272"/>
      <point x="58" y="308"/>
      <point x="34" y="360" type="curve"/>
      <point x="50" y="371" type="line"/>
      <point x="71" y="323"/>
      <point x="108" y="290"/>
      <point x="166" y="290" type="curve" smooth="yes"/>
      <point x="234" y="290"/>
      <point x="284" y="335"/>
      <point x="284" y="416" type="curve" smooth="yes"/>
      <point x="284" y="484"/>
      <point x="237" y="532"/>
      <point x="177" y="532" type="curve" smooth="yes"/>
      <point x="129" y="532"/>
      <point x="92" y="512"/>
      <point x="58" y="474" type="curve"/>
      <point x="74" y="500" type="line"/>
      <point x="95" y="528"/>
      <point x="136" y="550"/>
      <point x="184" y="550" type="curve" smooth="yes"/>
      <point x="252" y="550"/>
      <point x="304" y="495"/>
    </contour>
    <contour>
      <point x="128" y="680" type="line"/>
      <point x="84" y="504" type="line"/>
      <point x="58" y="474" type="line"/>
      <point x="114" y="698" type="line"/>
      <point x="312" y="698" type="line"/>
      <point x="312" y="680" type="line"/>
    </contour>
    <contour>
      <point x="568" y="132" type="curve" smooth="yes"/>
      <point x="568" y="62"/>
      <point x="616" y="10"/>
      <point x="684" y="10" type="curve" smooth="yes"/>
      <point x="752" y="10"/>
      <point x="799" y="62"/>
      <point x="799" y="132" type="curve" smooth="yes"/>
      <point x="799" y="198"/>
      <point x="748" y="248"/>
      <point x="688" y="248" type="curve" smooth="yes"/>
      <point x="613" y="248"/>
      <point x="568" y="194"/>
    </contour>
    <contour>
      <point x="717" y="418" type="line"/>
      <point x="742" y="418" type="line"/>
      <point x="600" y="221" type="line"/>
      <point x="599" y="222" type="line"/>
      <point x="621" y="250"/>
      <point x="654" y="264"/>
      <point x="694" y="264" type="curve" smooth="yes"/>
      <point x="762" y="264"/>
      <point x="818" y="205"/>
      <point x="818" y="132" type="curve" smooth="yes"/>
      <point x="818" y="50"/>
      <point x="765" y="-8"/>
      <point x="684" y="-8" type="curve" smooth="yes"/>
      <point x="603" y="-8"/>
      <point x="549" y="50"/>
      <point x="549" y="132" type="curve" smooth="yes"/>
      <point x="549" y="166"/>
      <point x="564" y="202"/>
      <point x="580" y="224" type="curve" smooth="yes"/>
    </contour>
  </outline>
</glyph>
<glyph name="uni2219" format="1">
  <advance width="272"/>
  <unicode hex="2219"/>
  <outline>
    <contour>
      <point x="112" y="439" type="curve" smooth="yes"/>
      <point x="112" y="453"/>
      <point x="123" y="463"/>
      <point x="136" y="463" type="curve" smooth="yes"/>
      <point x="149" y="463"/>
      <point x="160" y="453"/>
      <point x="160" y="439" type="curve" smooth="yes"/>
      <point x="160" y="425"/>
      <point x="149" y="414"/>
      <point x="136" y="414" type="curve" smooth="yes"/>
      <point x="123" y="414"/>
      <point x="112" y="425"/>
    </contour>
  </outline>
</glyph>
<glyph name="uniFF13" format="1">
  <advance width="559"/>
  <unicode hex="FF13"/>
  <outline>
    <contour>
      <point x="254" y="357" type="curve"/>
      <point x="254" y="379" type="line"/>
      <point x="344" y="379"/>
      <point x="442" y="438"/>
      <point x="442" y="530" type="curve" smooth="yes"/>
      <point x="442" y="608"/>
      <point x="389" y="680"/>
      <point x="289" y="680" type="curve" smooth="yes"/>
      <point x="193" y="680"/>
      <point x="129" y="615"/>
      <point x="129" y="526" type="curve"/>
      <point x="98" y="526" type="line"/>
      <point x="98" y="635"/>
      <point x="173" y="710"/>
      <point x="288" y="710" type="curve" smooth="yes"/>
      <point x="408" y="710"/>
      <point x="476" y="623"/>
      <point x="476" y="531" type="curve" smooth="yes"/>
      <point x="476" y="425"/>
      <point x="368" y="357"/>
    </contour>
    <contour>
      <point x="284" y="-10" type="curve" smooth="yes"/>
      <point x="149" y="-10"/>
      <point x="68" y="76"/>
      <point x="68" y="185" type="curve"/>
      <point x="100" y="185" type="line"/>
      <point x="100" y="91"/>
      <point x="169" y="21"/>
      <point x="284" y="21" type="curve" smooth="yes"/>
      <point x="392" y="21"/>
      <point x="462" y="87"/>
      <point x="462" y="181" type="curve" smooth="yes"/>
      <point x="462" y="295"/>
      <point x="344" y="350"/>
      <point x="254" y="350" type="curve"/>
      <point x="254" y="372" type="line"/>
      <point x="368" y="372"/>
      <point x="496" y="310"/>
      <point x="496" y="178" type="curve" smooth="yes"/>
      <point x="496" y="66"/>
      <point x="409" y="-10"/>
    </contour>
  </outline>
</glyph>
<glyph name="uniFF16" format="1">
  <advance width="559"/>
  <unicode hex="FF16"/>
  <outline>
    <contour>
      <point x="87" y="223" type="curve" smooth="yes"/>
      <point x="87" y="106"/>
      <point x="166" y="20"/>
      <point x="280" y="20" type="curve" smooth="yes"/>
      <point x="394" y="20"/>
      <point x="472" y="106"/>
      <point x="472" y="223" type="curve" smooth="yes"/>
      <point x="472" y="333"/>
      <point x="387" y="418"/>
      <point x="287" y="418" type="curve" smooth="yes"/>
      <point x="162" y="418"/>
      <point x="87" y="326"/>
    </contour>
    <contour>
      <point x="336" y="700" type="line"/>
      <point x="376" y="700" type="line"/>
      <point x="141" y="372" type="line"/>
      <point x="139" y="374" type="line"/>
      <point x="177" y="420"/>
      <point x="230" y="443"/>
      <point x="296" y="443" type="curve" smooth="yes"/>
      <point x="410" y="443"/>
      <point x="504" y="345"/>
      <point x="504" y="223" type="curve" smooth="yes"/>
      <point x="504" y="86"/>
      <point x="415" y="-10"/>
      <point x="280" y="-10" type="curve" smooth="yes"/>
      <point x="145" y="-10"/>
      <point x="56" y="86"/>
      <point x="56" y="223" type="curve" smooth="yes"/>
      <point x="56" y="280"/>
      <point x="81" y="341"/>
      <point x="108" y="378" type="curve" smooth="yes"/>
    </contour>
  </outline>
</glyph>
<glyph name="abreve.alt" format="1">
  <advance width="549"/>
  <outline>
    <contour>
      <point x="443" y="460" type="line"/>
      <point x="473" y="460" type="line"/>
      <point x="473" y="0" type="line"/>
      <point x="443" y="0" type="line"/>
    </contour>
    <contour>
      <point x="42" y="230" type="curve" smooth="yes"/>
      <point x="42" y="378"/>
      <point x="138" y="470"/>
      <point x="260" y="470" type="curve" smooth="yes"/>
      <point x="381" y="470"/>
      <point x="456" y="358"/>
      <point x="456" y="230" type="curve" smooth="yes"/>
      <point x="456" y="102"/>
      <point x="381" y="-10"/>
      <point x="260" y="-10" type="curve" smooth="yes"/>
      <point x="138" y="-10"/>
      <point x="42" y="82"/>
    </contour>
    <contour>
      <point x="73" y="230" type="curve" smooth="yes"/>
      <point x="73" y="100"/>
      <point x="158" y="20"/>
      <point x="265" y="20" type="curve" smooth="yes"/>
      <point x="362" y="20"/>
      <point x="442" y="117"/>
      <point x="442" y="230" type="curve" smooth="yes"/>
      <point x="442" y="343"/>
      <point x="362" y="440"/>
      <point x="265" y="440" type="curve" smooth="yes"/>
      <point x="158" y="440"/>
      <point x="73" y="360"/>
    </contour>
    <contour>
      <point x="102" y="684" type="curve"/>
      <point x="130" y="684" type="line"/>
      <point x="130" y="630"/>
      <point x="175" y="570"/>
      <point x="260" y="570" type="curve" smooth="yes"/>
      <point x="345" y="570"/>
      <point x="389" y="630"/>
      <point x="389" y="684" type="curve"/>
      <point x="418" y="684" type="line"/>
      <point x="418" y="615"/>
      <point x="365" y="544"/>
      <point x="260" y="544" type="curve" smooth="yes"/>
      <point x="155" y="544"/>
      <point x="102" y="615"/>
    </contour>
  </outline>
</glyph>
<glyph name="aogonek.alt" format="1">
  <advance width="549"/>
  <outline>
    <contour>
      <point x="443" y="460" type="line"/>
      <point x="473" y="460" type="line"/>
      <point x="473" y="0" type="line"/>
      <point x="443" y="0" type="line"/>
    </contour>
    <contour>
      <point x="42" y="230" type="curve" smooth="yes"/>
      <point x="42" y="378"/>
      <point x="138" y="470"/>
      <point x="260" y="470" type="curve" smooth="yes"/>
      <point x="381" y="470"/>
      <point x="456" y="358"/>
      <point x="456" y="230" type="curve" smooth="yes"/>
      <point x="456" y="102"/>
      <point x="381" y="-10"/>
      <point x="260" y="-10" type="curve" smooth="yes"/>
      <point x="138" y="-10"/>
      <point x="42" y="82"/>
    </contour>
    <contour>
      <point x="73" y="230" type="curve" smooth="yes"/>
      <point x="73" y="100"/>
      <point x="158" y="20"/>
      <point x="265" y="20" type="curve" smooth="yes"/>
      <point x="362" y="20"/>
      <point x="442" y="117"/>
      <point x="442" y="230" type="curve" smooth="yes"/>
      <point x="442" y="343"/>
      <point x="362" y="440"/>
      <point x="265" y="440" type="curve" smooth="yes"/>
      <point x="158" y="440"/>
      <point x="73" y="360"/>
    </contour>
    <contour>
      <point x="498" y="-160" type="curve"/>
      <point x="513" y="-180" type="line"/>
      <point x="498" y="-200"/>
      <point x="461" y="-220"/>
      <point x="418" y="-220" type="curve" smooth="yes"/>
      <point x="348" y="-220"/>
      <point x="309" y="-186"/>
      <point x="309" y="-134" type="curve"/>
      <point x="340" y="-128" type="line"/>
      <point x="340" y="-171"/>
      <point x="375" y="-192"/>
      <point x="419" y="-192" type="curve" smooth="yes"/>
      <point x="455" y="-192"/>
      <point x="483" y="-176"/>
    </contour>
    <contour>
      <point x="340" y="-128" type="curve"/>
      <point x="309" y="-134" type="line"/>
      <point x="309" y="-68"/>
      <point x="386" y="-22"/>
      <point x="456" y="14" type="curve"/>
      <point x="473" y="0" type="line"/>
      <point x="410" y="-29"/>
      <point x="340" y="-77"/>
    </contour>
  </outline>
</glyph>
